<?xml version="1.0" encoding="utf-8"?>
<!-- Generator: Adobe Illustrator 16.0.0, SVG Export Plug-In . SVG Version: 6.00 Build 0)  -->
<!DOCTYPE svg PUBLIC "-//W3C//DTD SVG 1.1//EN" "http://www.w3.org/Graphics/SVG/1.1/DTD/svg11.dtd">
<svg version="1.1" id="Layer_1" xmlns="http://www.w3.org/2000/svg" xmlns:xlink="http://www.w3.org/1999/xlink" x="0px" y="0px"
	 width="50px" height="50px" viewBox="0 0 50 50" enable-background="new 0 0 50 50" xml:space="preserve">
<path d="M43,21.001H7c-2.209,0-4,1.789-4,4c0,2.207,1.791,3.998,4,3.998h36c2.209,0,4-1.791,4-3.998
	C47,22.79,45.209,21.001,43,21.001 M43,26.999H7c-1.104,0-2-0.895-2-1.998c0-1.105,0.896-2.002,2-2.002h36c1.104,0,2,0.896,2,2.002
	C45,26.104,44.104,26.999,43,26.999 M7,14.999h36c2.209,0,4-1.79,4-4c0-2.209-1.791-3.998-4-3.998H7c-2.209,0-4,1.789-4,3.998
	C3,13.209,4.791,14.999,7,14.999 M7,9.001h36c1.104,0,2,0.895,2,1.998c0,1.105-0.896,2-2,2H7c-1.104,0-2-0.895-2-2
	C5,9.896,5.896,9.001,7,9.001 M43,34.999H7c-2.209,0-4,1.791-4,4s1.791,4,4,4h36c2.209,0,4-1.791,4-4S45.209,34.999,43,34.999
	 M43,40.999H7c-1.104,0-2-0.896-2-2s0.896-2,2-2h36c1.104,0,2,0.896,2,2S44.104,40.999,43,40.999"/>
</svg>
