<?xml version="1.0" encoding="utf-8"?>
<!-- Generator: Adobe Illustrator 16.0.0, SVG Export Plug-In . SVG Version: 6.00 Build 0)  -->
<!DOCTYPE svg PUBLIC "-//W3C//DTD SVG 1.1//EN" "http://www.w3.org/Graphics/SVG/1.1/DTD/svg11.dtd">
<svg version="1.1" id="Layer_1" xmlns="http://www.w3.org/2000/svg" xmlns:xlink="http://www.w3.org/1999/xlink" x="0px" y="0px"
	 width="50px" height="50px" viewBox="0 0 50 50" enable-background="new 0 0 50 50" xml:space="preserve">
<path d="M25,12h4v4c0,0.553,0.447,1,1,1c0.552,0,1-0.447,1-1v-4h4c0.552,0,1-0.447,1-1s-0.448-1-1-1h-4V6c0-0.552-0.448-1-1-1
	c-0.553,0-1,0.448-1,1v4h-4c-0.553,0-1,0.447-1,1S24.447,12,25,12 M42.964,38.24l0.007,0.002l4-18l-0.02-0.004
	C46.972,20.16,47,20.084,47,20c0-0.553-0.448-1-1-1H13.938l-1.418-5.287l-0.015,0.004C12.382,13.306,12.015,13,11.563,13H4
	c-0.553,0-1,0.448-1,1c0,0.553,0.447,1,1,1h6.796l6.245,23.287h0.002c0.086,0.281,0.291,0.51,0.558,0.627
	C17.227,39.523,17,40.232,17,41c0,2.209,1.791,4,4,4s4-1.791,4-4c0-0.732-0.211-1.41-0.555-2h11.109C35.212,39.59,35,40.268,35,41
	c0,2.209,1.791,4,4,4s4-1.791,4-4c0-0.768-0.227-1.477-0.602-2.086C42.68,38.793,42.888,38.543,42.964,38.24 M38.895,21h5.859
	l-0.889,4h-5.414L38.895,21z M14.475,21h6.63l0.445,4h-6.002L14.475,21z M17.156,31l-1.072-4h5.688l0.445,4H17.156z M17.693,33
	h4.745l0.444,4h-4.116L17.693,33z M21,43c-1.104,0-2-0.896-2-2s0.896-2,2-2s2,0.896,2,2S22.104,43,21,43 M29,37h-4.105l-0.443-4H29
	V37z M29,31h-4.771l-0.445-4H29V31z M29,25h-5.438l-0.444-4H29V25z M35.104,37H31v-4h4.55L35.104,37z M35.771,31H31v-4h5.217
	L35.771,31z M36.438,25H31v-4h5.883L36.438,25z M39,43c-1.104,0-2-0.896-2-2s0.896-2,2-2s2,0.896,2,2S40.104,43,39,43 M41.197,37
	h-4.08l0.444-4h4.525L41.197,37z M37.783,31l0.445-4h5.192l-0.89,4H37.783z"/>
</svg>
