<?xml version="1.0" encoding="utf-8"?>
<!-- Generator: Adobe Illustrator 16.0.0, SVG Export Plug-In . SVG Version: 6.00 Build 0)  -->
<!DOCTYPE svg PUBLIC "-//W3C//DTD SVG 1.1//EN" "http://www.w3.org/Graphics/SVG/1.1/DTD/svg11.dtd">
<svg version="1.1" xmlns="http://www.w3.org/2000/svg" xmlns:xlink="http://www.w3.org/1999/xlink" x="0px" y="0px"
	 width="440.978px" height="389.98px" viewBox="0 0 440.978 389.98" enable-background="new 0 0 440.978 389.98"
	 xml:space="preserve">
<g id="Layer_1" display="none">
	<path display="inline" d="M-456.048-365.44v0.003l-126.685-0.016c-6.053,0-10.959,4.906-10.959,10.958
		c0,6.053,4.906,10.959,10.959,10.959h30.314l-2.277,8.083h-38.037c-6.053,0-10.959,4.906-10.959,10.958
		c0,6.053,4.906,10.959,10.959,10.959h31.861l-2.278,8.083h-39.583c-6.053,0-10.959,4.906-10.959,10.958
		c0,6.053,4.906,10.959,10.959,10.959h33.408l-2.278,8.083h-41.13c-6.053,0-10.959,4.906-10.959,10.958
		c0,6.053,4.906,10.959,10.959,10.959h34.954l-2.277,8.083h-42.677c-6.053,0-10.959,4.906-10.959,10.958
		c0,6.053,4.906,10.959,10.959,10.959h87.96l22.939-81.41c2.293-4.973,9.59-16.863,27.58-19.338h28.205h2.453h1.933
		c25.343-1.898,31.405-21.841,31.405-21.841l0.427-1.282l5.081-18.028L-456.048-365.44z"/>
	<circle display="inline" cx="-513.048" cy="-401.083" r="28"/>
</g>
<g id="Layer_2">
	<path d="M-1053.712-317.2l0.003-0.005l-59.518-36.846c-77.844-48.195-126.018,29.282-126.277,29.699l-0.012-0.007l-36.848,59.517
		c-26.487,42.786-69.379,16.324-69.379,16.324l-21.76,35.142c78.058,48.325,126.284-29.709,126.284-29.709l36.841-59.507
		l0.012,0.008c26.488-42.785,69.383-16.324,69.383-16.324l59.229,36.669c42.577,26.506,16.165,69.294,16.165,69.294l35.137,21.77
		C-978.159-265.909-1047.727-313.312-1053.712-317.2z"/>
	<g>
		<path d="M-1005.322,45.039l-49.497,49.498c0,0-35.693,35.582-71.275,0l-0.011,0.01l-49.489-49.49c0,0-64.815-64.914-129.73,0
			l-49.497,49.498l29.227,29.227l49.498-49.497c0,0,35.693-35.582,71.275,0l49.498,49.497l0.01-0.01
			c0.335,0.335,64.977,64.737,129.723-0.008l49.497-49.498L-1005.322,45.039z"/>
		<circle cx="-1128.126" cy="22.918" r="40"/>
	</g>
	<path d="M-1302.887-452.411c0,6.259-5.074,11.333-11.333,11.333l0,0c-6.259,0-11.333-5.074-11.333-11.333v-78.001
		c0-6.259,5.074-11.333,11.333-11.333l0,0c6.259,0,11.333,5.074,11.333,11.333V-452.411z"/>
	<path d="M-1215.887-452.411c0,6.259-5.074,11.333-11.333,11.333l0,0c-6.259,0-11.333-5.074-11.333-11.333v-78.001
		c0-6.259,5.074-11.333,11.333-11.333l0,0c6.259,0,11.333,5.074,11.333,11.333V-452.411z"/>
	<path d="M-1248.887-529.578c0,6.72-5.244,12.167-11.713,12.167h-53.241c-6.469,0-11.713-5.447-11.713-12.167l0,0
		c0-6.719,5.244-12.167,11.713-12.167h53.241C-1254.131-541.745-1248.887-536.297-1248.887-529.578L-1248.887-529.578z"/>
	<path d="M-1009.553-452.411c0,6.259-5.074,11.333-11.333,11.333l0,0c-6.259,0-11.333-5.074-11.333-11.333v-78.001
		c0-6.259,5.074-11.333,11.333-11.333l0,0c6.259,0,11.333,5.074,11.333,11.333V-452.411z"/>
	<path d="M-955.553-529.578c0,6.72-5.244,12.167-11.713,12.167h-53.24c-6.469,0-11.713-5.447-11.713-12.167l0,0
		c0-6.719,5.244-12.167,11.713-12.167h53.24C-960.797-541.745-955.553-536.297-955.553-529.578L-955.553-529.578z"/>
	<path d="M-1184.554-530.412c0-6.259,5.074-11.333,11.333-11.333l0,0c6.26,0,11.334,5.074,11.334,11.333v78.001
		c0,6.259-5.074,11.333-11.334,11.333l0,0c-6.259,0-11.333-5.074-11.333-11.333V-530.412z"/>
	<path d="M-1238.554-453.245c0-6.72,5.244-12.167,11.713-12.167h53.241c6.469,0,11.713,5.447,11.713,12.167l0,0
		c0,6.719-5.244,12.166-11.713,12.166h-53.241C-1233.31-441.079-1238.554-446.526-1238.554-453.245L-1238.554-453.245z"/>
	<path d="M-1094.554-530.412c0-6.259,5.074-11.333,11.334-11.333l0,0c6.259,0,11.333,5.074,11.333,11.333v78.001
		c0,6.259-5.074,11.333-11.333,11.333l0,0c-6.26,0-11.334-5.074-11.334-11.333V-530.412z"/>
	<path d="M-1125.887-452.411c0,6.259-5.074,11.333-11.332,11.333l0,0c-6.26,0-11.334-5.074-11.334-11.333v-78.001
		c0-6.259,5.074-11.333,11.334-11.333l0,0c6.258,0,11.332,5.074,11.332,11.333V-452.411z"/>
	<path d="M-1071.887-529.578c0,6.72-5.244,12.167-11.713,12.167h-53.24c-6.469,0-11.713-5.447-11.713-12.167l0,0
		c0-6.719,5.244-12.166,11.713-12.166h53.24C-1077.131-541.744-1071.887-536.297-1071.887-529.578L-1071.887-529.578z"/>
	<path d="M-1038.22-454.077c0,6.996-5.671,12.667-12.667,12.667l0,0c-6.995,0-12.666-5.671-12.666-12.667l0,0
		c0-6.995,5.671-12.666,12.666-12.666l0,0C-1043.891-466.743-1038.22-461.072-1038.22-454.077L-1038.22-454.077z"/>
	<g>
		<path d="M-1071.958-1397.691l0.003-0.005l-59.518-36.846c-77.844-48.195-126.018,29.282-126.277,29.699l-0.012-0.007
			l-36.848,59.517c-26.487,42.785-69.379,16.324-69.379,16.324l-21.76,35.142c78.058,48.325,126.284-29.71,126.284-29.71
			l36.841-59.506l0.012,0.008c26.488-42.785,69.383-16.324,69.383-16.324l59.229,36.669c42.577,26.506,16.165,69.294,16.165,69.294
			l35.137,21.771C-996.405-1346.401-1065.973-1393.803-1071.958-1397.691z"/>
		<g>
			<circle cx="-1112.126" cy="-1586.708" r="40.001"/>
			<path d="M-1015.514-1547.052l-10.426,15.797c0,0-27.827,42.021-69.825,14.302l-0.009,0.012l-58.413-38.553
				c0,0-76.523-50.588-127.092,26.032l-38.558,58.424l34.498,22.767l38.559-58.422c0,0,27.828-42.021,69.826-14.302l58.424,38.558
				l0.007-0.011c0.396,0.261,76.646,50.382,127.083-26.038l11.178-16.937L-1015.514-1547.052z"/>
		</g>
		<path d="M-1149.094-1496.915c7.063-10.62,7.449-22.781,0.859-27.165l-9.176-6.104c-6.589-4.383-17.657,0.671-24.722,11.291
			l-75.141,112.953c-7.065,10.619-7.45,22.781-0.86,27.165l9.175,6.104c6.589,4.383,17.658-0.671,24.722-11.291L-1149.094-1496.915z
			"/>
		<polygon points="-1209.873,-1572.589 -1367.873,-1566.589 -1211.873,-1556.589 		"/>
		<polygon points="-1207.873,-1450.589 -1365.873,-1444.589 -1209.873,-1434.589 		"/>
		<polygon points="-1048.873,-1335.589 -1206.873,-1329.589 -1050.873,-1319.589 		"/>
		<polygon points="-1271.873,-1374.589 -1429.873,-1368.589 -1273.873,-1358.589 		"/>
		<polygon points="-1233.873,-1414.716 -1349.873,-1410.311 -1235.341,-1402.969 		"/>
		<polygon points="-1267.873,-1514.716 -1383.873,-1510.311 -1269.341,-1502.969 		"/>
		<polygon points="-1169.873,-1485.602 -1263.873,-1482.033 -1171.063,-1476.083 		"/>
		<polygon points="-1231.873,-1541.602 -1325.873,-1538.033 -1233.063,-1532.083 		"/>
		<polygon points="-1087.873,-1587.602 -1181.873,-1584.033 -1089.063,-1578.083 		"/>
		<polygon points="-1015.29,-1546.969 -1057.29,-1545.374 -1015.822,-1542.715 		"/>
		<polygon points="-1123.957,-1624.969 -1165.957,-1623.374 -1124.489,-1620.715 		"/>
		<polygon points="-1042.873,-1360.488 -1114.873,-1357.754 -1043.785,-1353.197 		"/>
		<polygon points="-996.873,-1530.602 -1090.873,-1527.033 -998.063,-1521.083 		"/>
		<polygon points="-1135.539,-1607.269 -1229.54,-1603.699 -1136.73,-1597.75 		"/>
		<polygon points="-1048.873,-1299.102 -1142.873,-1295.533 -1050.063,-1289.583 		"/>
		<polygon points="-1281.873,-1487.602 -1375.873,-1484.033 -1283.063,-1478.083 		"/>
		<polygon points="-1261.873,-1343.602 -1355.873,-1340.033 -1263.063,-1334.083 		"/>
		<polygon points="-1329.873,-1317.602 -1423.873,-1314.033 -1331.063,-1308.083 		"/>
		<polygon points="-1102.873,-1385.602 -1196.873,-1382.033 -1104.063,-1376.083 		"/>
	</g>
	<path d="M-1201.532,286.218c9.43,4.047,19.351,7.566,28.492,11.922c17.791,8.478,34.283,14.953,52.758,20.781
		c10.159,3.204,18.506,7.229,27.938,12.051c10.4,5.319,23.232,7.754,33.104,13.974c4.25,2.678,6.063,6.091,10.948,8.968
		c4.235,2.495,9.252,3.98,14.03,5.787c12.692,4.799,26.176,9.241,39.119,14.217c11.959,4.598,24.563,3.355,37.338,1.052
		c16.539-2.982,16.777-6.289,21.465-20.881c6.301-19.619,6.71-39.164,17.355-57.262c-0.059-0.749-0.103-0.773-0.133-0.075
		c6.596,23.517,7.811,49.822,8.055,73.892c0.236,23.239-6.314,56.314-24.219,72.052c-24.487,21.523-70.893,7.379-97.825-0.723
		c-14.228-4.28-24.814-11.621-33.153,3.945c-4.657,8.692-6.397,16.157-6.854,26c-1.459,31.4,17.252,40.431,41.048,58.246
		c10.509,7.866,19.705,16.12,30.984,22.73c10.234,5.998,15.899,11.332,20.996,21.777c6.883,14.104,11.226,27.159,14.997,42.346
		c4.181,16.834,5.619,35.444,10.951,51.849c7.255,22.318,29.3,43.452,28.075,67.274c-0.305,5.932,1.311,7.43-4.004,9.801
		c-6.058,2.703-21.15-5.056-26.014-8.246c-9.678-6.348-19.104-13.655-25.959-22.804c-16.433-21.931-25.821-46.707-38.221-70.896
		c-11.093-21.639-22.4-34.841-42.552-48.254c-9.309-6.196-17.136-13.335-28.199-17.824c-10.589-4.297-21.22-7.188-32.132-10.775
		c-20.039-6.585-28.261,30.949-34.19,44.775c-3.954,9.218-5.755,20.64-12.483,29.048c-9.278,11.593-27.873,11.54-42.243,11.952
		c-28.985,0.832-56.982-15.957-85.833-20.026c-32.723-4.616-68.035-4.974-101.167-4.974c-9.23,0-28.134,1.691-32-5.952
		c-4.94-9.768,7.138-20.528,14.02-24.822c21.385-13.34,54.26-16.843,79.176-16.226c24.057,0.596,47.757,11.989,71.993,4.996
		c19.122-5.517,40.226-24.37,45.807-43.995c3.526-12.399,1.004-18.399-3.219-29.173c-2.767-7.062-2.202-16.055-1.78-23.828
		c0.883-16.276,3.334-31.52,7.223-47.004c4.165-16.586,8.795-28.311,19.002-42.199c6.267-8.527,14.741-17.285,8.549-26.801
		c-6.102-9.377-20.083-13.208-28.709-19.934c-11.626-9.066-24.083-17.975-39.068-20.066c-10.542-1.471-18.397-4.335-25.774,4.501
		c-7.497,8.979-8.331,23.365-9.219,34.726c-0.953,12.181,6.205,53.698-7.98,58.801c-20.185,7.26-31.925-48.146-33.075-60.027
		c-1.639-16.938,0.859-34.708,3.974-50.968c2.745-14.333,3.416-32.965,13.026-45.028c9.91-12.439,29.753-9.629,44.029-9
		c7.988,0.352,18.292-0.05,26.017,1.976c6.352,1.665,12.319,5.24,18.622,7.028C-1219.025,277.595-1210.486,282.374-1201.532,286.218
		z"/>
	<path d="M-1131.201,194.889c-2.774,31.197-10.622,80.631,13.84,105.027c14.463,14.424,30.452,24.339,50.981,15.748
		c19.341-8.093,32.821-26.37,39.767-45.729c11.92-33.225,26.414-94.477-15.921-109.25c-16.426-5.732-42.737-11.78-60.306-8.823
		C-1125.998,155.759-1129.191,172.299-1131.201,194.889z"/>
	<path d="M-1021.149,235.917c-19.08-1.469-39.552-6.289-59.123-8.571c-9.719-1.133-20.109-2.459-29.505-5.099
		c-11.396-3.201-22.431-8.429-33.407-12.733c-6.578-2.579-23.839-2.031-21.931-14.608c16.308-1.01,29.126,9.317,44.973,11.01
		c11.441,1.223,22.508-0.854,33.828-0.854c17.841,0,34.763,0.1,51.701,6.622c6.033,2.323,12.408,5.262,15.126,12.023
		c2.278,5.672,0.382,16.761-6.095,9.64"/>
	<path d="M-1296.467,268.995c-6.257,2.99-18.618,1.5-26.8,1.5c-26.509,0-53.018,0-79.526,0c-15.504,0-42.69-4.631-55.759,2.637
		c45.608,3.771,87.726,18.31,133.916,18.362c6.625,0.008,26.285,2.271,31.277-2.56c6.19-5.989,4.038-24.37-6.106-24.439"/>
	<path d="M-1305.466,316.993c-31.083,0-63.18-1.848-94.114,0.305c13.546,7.082,105.979,36.376,91.114-3.305"/>
	<path d="M-1219.97,465.485c-73.599,0-148.487-8.115-222.083-2.666c64.143,9.943,130.144,20.503,194.828,26.665
		c15.356,1.463,51.718,1.909,31.755-23.999"/>
	<path d="M-1183.972,420.487c-25.331,0-51.25,1.347-76.454-0.256c11-9.777,81.9-15.559,85.368,3.142
		c-4.527,0.227-9.049-1.524-11.915-4.385"/>
	<path d="M-1207.971,547.981c-37.707-2.548-80.279-6.774-115.588-7.572c28.497,4.428,55.128,13.866,84.09,15.072
		c11.888,0.495,23.086,4.534,34.271,4.272c0.267-3.998,1.137-9.3,0.227-13.272"/>
	<path d="M-1321.965,355.991c-15.231,12.039-66.525,3-87.097,3c-14.379,0-28.757,0-43.136,0c32.78,0.082,65.506,2.991,97.347,6.111
		c11.944,1.17,25.344,6.007,37.16,4.161c0.805-2.732,0.621-7.122-0.334-9.712c-2.243-0.735-4.55-0.886-6.939-0.561"/>
	<path d="M-1309.966,399.489c-10.192,14.608-78.375,3.506-98.427,4.755c15.839,8.53,46.094,7.883,64.417,8.739
		c12.112,0.565,24.757,0.429,36.788-0.217c3.06-6.194,3.37-14.441-5.778-13.277"/>
	<path d="M-1258.968,586.979c-17.223,6.494-57.825-11.422-76.999-14.612c-13.158-2.189-26.515-2.896-39.579-4.814
		c-18.346-2.694-37.663-2.805-55.533-7.238c38.71-2.57,75.948,12.118,111.958,19.576c23.475,4.862,44.442,10.073,65.885,17.391
		c0.9-7.257-2.708-13.578-10.233-13.302"/>
	<path d="M-1174.973,348.491c-21.517,7.228-74.956-8.421-91.411,10.161c19.531,1.599,39.864,0.339,59.579,0.339
		c10.892,0,36.543,5.61,34.832-10.5"/>
	<g>
		<path d="M-1008.769-701.923c0,0-24.151-48.303-26.508-71.276c0,0-3.534-30.043-39.468-40.646l-63.619-17.672
			c0,0-12.96-8.247-8.247-23.563s14.138-32.988,14.138-32.988s7.069-8.247,14.138-7.068c7.069,1.178,68.332,10.604,68.332,10.604
			s22.385,0,23.563-8.247c1.179-8.247,7.069-70.688,7.069-70.688s0-17.256-15.479-4.301c-0.35,0.292-1.101,1.285-1.764,2.206
			c-0.664,0.92-2.023,3.724-2.023,3.724l-11.351,28.377c0,0-1.404,4.357-1.986,6.189c-1.359,4.279-4.74,11.049-12.166,8.574
			c-10.604-3.535-89.538-65.976-110.745-61.264l-77.757-20.028c0,0-28.275-5.891-37.7,14.138l-16.494,71.866
			c0,0,1.178,22.385,15.316,7.069l31.81-47.126l49.482,31.81c0,0-32.988,54.194-32.988,96.607l-22.385,31.81
			c0,0-11.781,5.891-20.028,1.179c0,0-75.401-18.851-116.636,18.851c0,0-35.344,30.631,7.069,22.384
			c0,0,62.441-14.138,117.814,12.96c0,0,14.138,18.85,42.413,1.178c28.275-17.672,56.55-45.947,56.55-45.947
			s8.257,6.259,24.062,11.507c19.178,7.749,47.218,15.99,74.313,12.646c0,0,9.426-0.59,10.604,8.246
			c0,0,10.604,47.126,54.783,54.784C-1014.659-696.031-1006.412-694.854-1008.769-701.923z"/>
		
			<ellipse transform="matrix(0.9694 0.2454 -0.2454 0.9694 -284.668 244.1475)" cx="-1121.97" cy="-1020.15" rx="42.286" ry="54.459"/>
		<polygon points="-1121.869,-1070.679 -1209.052,-1069.501 -1125.403,-1060.076 		"/>
		<polygon points="-1147.524,-1045.029 -1188.692,-1040.791 -1145.763,-1035.771 		"/>
		<polygon points="-1152.572,-1023.825 -1222.821,-1017.859 -1154.228,-1016.098 		"/>
		<polygon points="-1150.438,-1006.125 -1200.704,-1002.884 -1153.823,-1000.384 		"/>
		<polygon points="-1274.197,-995.699 -1354.18,-989.926 -1275.878,-987.978 		"/>
		<polygon points="-1283.636,-971.351 -1407.63,-975.499 -1289.221,-964.037 		"/>
		<polygon points="-1291.521,-945.797 -1357.497,-950.509 -1293.877,-939.906 		"/>
		<polygon points="-1210.229,-911.631 -1271.493,-911.631 -1211.407,-906.918 		"/>
		<polygon points="-1227.902,-877.465 -1341.003,-880.999 -1226.724,-871.574 		"/>
		<polygon points="-1233.792,-846.833 -1296.233,-853.902 -1233.792,-852.724 		"/>
		<polygon points="-1243.217,-820.914 -1349.25,-824.448 -1245.574,-813.846 		"/>
		<polygon points="-1338.646,-792.639 -1439.966,-799.708 -1341.003,-786.748 		"/>
		<polygon points="-1389.307,-776.146 -1467.063,-774.967 -1394.019,-770.254 		"/>
	</g>
	<g>
		
			<ellipse transform="matrix(0.9694 0.2454 -0.2454 0.9694 -198.2296 359.7448)" cx="-1542.583" cy="-615.519" rx="42.286" ry="54.459"/>
		<polygon points="-1542.481,-666.048 -1629.664,-664.87 -1546.016,-655.445 		"/>
		<polygon points="-1568.137,-640.398 -1609.305,-636.16 -1566.375,-631.14 		"/>
		<polygon points="-1573.185,-619.194 -1643.434,-613.229 -1574.84,-611.467 		"/>
		<polygon points="-1571.05,-601.494 -1621.316,-598.253 -1574.436,-595.753 		"/>
		<polygon points="-1755.499,-390.551 -1856.983,-386.499 -1757.196,-384.438 		"/>
		<polygon points="-1772.919,-366.515 -1850.676,-365.336 -1777.631,-360.623 		"/>
		<path d="M-1429.381-297.292c0,0-24.151-48.303-26.508-71.276c0,0-3.534-30.043-39.468-40.646l-63.619-17.672
			c0,0-12.96-8.247-8.247-23.563s14.138-32.988,14.138-32.988s7.069-8.247,14.138-7.068c7.069,1.178,68.332,10.604,68.332,10.604
			s22.385,0,23.563-8.247c1.179-8.247,7.069-70.688,7.069-70.688s0-17.256-15.479-4.301c-0.35,0.292-1.101,1.285-1.764,2.206
			c-0.664,0.92-2.023,3.724-2.023,3.724l-11.351,28.377c0,0-1.404,4.357-1.986,6.189c-1.359,4.279-4.74,11.049-12.166,8.574
			c-8.959-2.987-66.696-48.024-97.183-59.081c-2.716-0.984-9.023-2.438-11.128-2.934c-13.845-3.255-62.14-14.916-76.271-18.33
			c-2.486-0.601-3.92-0.947-3.92-0.947s-28.275-5.891-37.7,14.138l-15.409,67.136c0,0-0.954,7.234-0.25,9.994
			c1.35,5.284,4.796,11.506,13.436,2.895c0.34-0.34,2.139-2.711,2.139-2.711c3.553-5.264,7.105-10.526,10.658-15.79
			c5.549-8.22,11.097-16.44,16.646-24.66c0.935-1.386,1.958-2.744,2.819-4.177c0.847-1.408,2.11-2.787,3.17-4.251h72.042
			c3.685,0,6.682,2.998,6.682,6.683v100.727c0,3.686-2.997,6.684-6.682,6.684h-56.475c-1.044,6.006-1.652,11.96-1.652,17.698
			l-22.385,31.81c0,0-11.781,5.891-20.028,1.179c0,0-75.401-18.851-116.636,18.851c0,0-35.344,30.631,7.069,22.384
			c0,0,62.441-14.138,117.814,12.96c0,0,14.138,18.85,42.414,1.178c28.274-17.672,56.55-45.947,56.55-45.947
			s8.257,6.259,24.062,11.507c19.178,7.749,47.218,15.99,74.313,12.646c0,0,9.426-0.59,10.604,8.246
			c0,0,10.604,47.126,54.783,54.784C-1435.271-291.4-1427.024-290.223-1429.381-297.292z"/>
		<polygon points="-1694.477,-588.466 -1774.667,-587.997 -1696.666,-580.873 		"/>
		<polygon points="-1704.249,-566.72 -1828.242,-570.868 -1709.833,-559.406 		"/>
		<path d="M-1780.329-443.694c-0.928,0-1.683-0.755-1.683-1.684v-100.727c0-0.928,0.755-1.683,1.683-1.683h56.57l-7.521,32.767
			l-0.042,0.279c-0.325,2.464-0.987,8.553-0.137,11.886c2.428,9.507,7.837,10.926,10.845,10.926c3.512,0,7.1-1.875,10.969-5.731
			c0.193-0.193,0.588-0.59,2.588-3.226l0.07-0.095c3.045-4.509,6.169-9.032,9.189-13.406c6.061-8.776,12.329-17.852,18.096-27.015
			c0.344-0.545,0.655-1.058,0.954-1.549c1.067-1.755,1.918-3.154,3.455-4.836h69.587c0.928,0,1.682,0.755,1.682,1.683v100.727
			c0,0.929-0.754,1.684-1.682,1.684H-1780.329z"/>
	</g>
	<polygon points="-1752.303,-535.301 -1818.44,-534.388 -1754.15,-529.231 	"/>
	<polygon points="-1657.404,-421.535 -1719.846,-428.604 -1657.404,-427.426 	"/>
	<polygon points="-1763.071,-493.535 -1825.512,-500.604 -1763.071,-499.426 	"/>
	<polygon points="-1668.496,-410.283 -1774.529,-413.817 -1670.853,-403.215 	"/>
	<polygon points="-1736.496,-467.617 -1842.529,-471.151 -1738.853,-460.549 	"/>
	<g>
		<ellipse transform="matrix(0.9694 0.2454 -0.2454 0.9694 187.3297 -73.6116)" cx="389.03" cy="714.85" rx="42.286" ry="54.459"/>
		<polygon points="389.131,664.321 301.948,665.499 385.597,674.924 		"/>
		<polygon points="363.476,689.971 322.308,694.209 365.237,699.229 		"/>
		<polygon points="358.428,711.175 288.179,717.141 356.772,718.902 		"/>
		<polygon points="360.563,728.875 310.296,732.116 357.177,734.616 		"/>
		<polygon points="176.114,939.818 74.629,943.87 174.416,945.932 		"/>
		<polygon points="158.693,963.854 80.937,965.033 153.981,969.746 		"/>
		<path d="M502.231,1033.077c0,0-24.151-48.303-26.508-71.276c0,0-3.534-30.043-39.468-40.646l-63.619-17.672
			c0,0-12.96-8.247-8.247-23.563s14.138-32.988,14.138-32.988s7.069-8.247,14.138-7.068c7.069,1.178,68.332,10.604,68.332,10.604
			s22.385,0,23.563-8.247c1.179-8.247,7.069-70.688,7.069-70.688s0-17.256-15.479-4.301c-0.35,0.292-1.101,1.285-1.764,2.206
			c-0.664,0.92-2.023,3.724-2.023,3.724l-11.351,28.377c0,0-1.404,4.357-1.986,6.189c-1.359,4.279-4.74,11.049-12.166,8.574
			c-8.959-2.987-66.696-48.024-97.183-59.081c-2.716-0.984-9.023-2.438-11.128-2.934c-13.845-3.255-62.14-14.916-76.271-18.33
			c-2.486-0.601-3.921-0.947-3.921-0.947s-28.275-5.891-37.7,14.138l-15.408,67.136c0,0-0.954,7.234-0.25,9.994
			c1.35,5.284,4.797,11.506,13.436,2.895c0.34-0.34,2.139-2.711,2.139-2.711c3.553-5.264,7.105-10.526,10.658-15.79
			c5.549-8.22,11.098-16.44,16.646-24.66c0.935-1.386,1.957-2.744,2.818-4.177c0.848-1.408,2.11-2.787,3.171-4.251h72.042
			c3.685,0,6.682,2.998,6.682,6.683v100.727c0,3.686-2.997,6.684-6.682,6.684h-56.475c-1.044,6.006-1.652,11.96-1.652,17.698
			l-22.385,31.81c0,0-11.781,5.891-20.027,1.179c0,0-75.401-18.851-116.637,18.851c0,0-35.344,30.631,7.069,22.384
			c0,0,62.441-14.138,117.813,12.96c0,0,14.139,18.85,42.414,1.178c28.274-17.672,56.55-45.947,56.55-45.947
			s8.257,6.259,24.062,11.507c19.178,7.749,47.218,15.99,74.313,12.646c0,0,9.426-0.59,10.604,8.246
			c0,0,10.604,47.126,54.783,54.784C496.341,1038.969,504.588,1040.146,502.231,1033.077z"/>
		<polygon points="237.136,741.903 156.944,742.372 234.946,749.496 		"/>
		<polygon points="227.364,763.649 103.37,759.501 221.779,770.963 		"/>
		<path d="M151.283,886.675c-0.929,0-1.683-0.755-1.683-1.684V784.265c0-0.928,0.754-1.683,1.683-1.683h56.57l-7.521,32.767
			l-0.041,0.279c-0.325,2.464-0.988,8.553-0.137,11.886c2.428,9.507,7.836,10.926,10.845,10.926c3.512,0,7.1-1.875,10.969-5.731
			c0.193-0.193,0.589-0.59,2.589-3.226l0.07-0.095c3.045-4.509,6.168-9.032,9.189-13.406c6.061-8.776,12.328-17.852,18.096-27.015
			c0.344-0.545,0.654-1.058,0.953-1.549c1.068-1.755,1.918-3.154,3.455-4.836h69.588c0.928,0,1.682,0.755,1.682,1.683v100.727
			c0,0.929-0.754,1.684-1.682,1.684H151.283z"/>
	</g>
	<polygon points="179.31,795.068 113.173,795.981 177.462,801.138 	"/>
	<polygon points="274.208,908.834 211.767,901.765 274.208,902.943 	"/>
	<polygon points="168.542,836.834 106.101,829.765 168.542,830.943 	"/>
	<polygon points="263.116,920.086 157.083,916.552 260.76,927.154 	"/>
	<polygon points="195.116,862.752 89.083,859.218 192.76,869.82 	"/>
	<g>
		<path d="M278.388,58.51l-58.362,4.956l57.789,1.484c-0.158,3.818,0.019,7.555,0.501,11.159l-36.173,2.332l36.904,1.968
			c3.486,16.708,13.822,29.853,28.465,33.56c22.64,5.731,46.977-13.259,54.357-42.416s-4.989-57.44-27.629-63.171
			c-7.887-1.997-15.979-0.985-23.488,2.402l-76.957,1.04l64.501,7.268c-5.338,4.866-9.98,11.07-13.506,18.288l-30.636,3.154
			l27.905,3.264c-0.831,2.261-1.566,4.592-2.176,7C279.229,53.381,278.738,55.955,278.388,58.51z"/>
		<path d="M434.078,379.402c0,0-24.151-48.303-26.508-71.276c0,0-3.534-30.043-39.468-40.646l-63.619-17.672
			c0,0-12.96-8.247-8.247-23.563s14.138-32.988,14.138-32.988s7.069-8.247,14.138-7.068c7.069,1.178,68.332,10.604,68.332,10.604
			s22.385,0,23.563-8.247c1.179-8.247,7.069-70.688,7.069-70.688s0-17.256-15.479-4.301c-0.35,0.292-1.101,1.285-1.764,2.206
			c-0.664,0.92-2.023,3.724-2.023,3.724l-11.351,28.377c0,0-1.404,4.357-1.986,6.189c-1.359,4.279-4.74,11.049-12.166,8.574
			c-8.959-2.987-66.696-48.024-97.183-59.081c-2.716-0.984-9.023-2.438-11.128-2.934c-13.845-3.255-62.14-14.916-76.271-18.33
			c-2.486-0.601-3.921-0.947-3.921-0.947s-20.642-4.288-32.529,6.961l-68.884,0.402l64.188,5.862
			c-0.158,0.304-0.326,0.596-0.475,0.912l-3.252,14.17l-114.035-3.815l77.092,7.463c15.404-0.855,29.417,2.625,29.417,2.625
			l3.949,0.604l1.955,0.189l-10.534,45.899c0,0-0.954,7.234-0.25,9.994c1.35,5.284,4.797,11.506,13.436,2.895
			c0.34-0.34,2.139-2.711,2.139-2.711c3.553-5.264,7.105-10.526,10.658-15.79c5.549-8.22,11.098-16.44,16.646-24.66
			c0.935-1.386,1.957-2.744,2.818-4.177c0.848-1.408,2.11-2.787,3.171-4.251l0.823-1.132l37.167,5.691
			c58.525,11.401,18.241,99.569,18.241,99.569c-5.674,13.477-22.087,19.081-42.007,20.411c-0.019,0.234-0.044,0.471-0.062,0.705
			l-56.264-1.063l56.033,6.344c-0.007,0.422-0.018,0.845-0.018,1.265l-7.473,10.619l-103.227-3.44l98.556,10.079l-10.241,14.552
			c0,0-11.781,5.891-20.027,1.179c0,0-37.977-9.488-74.766-1.524l-75.976,3.033l61.107,1.263
			c-9.751,3.606-19.019,8.779-27.003,16.079c0,0-1.582,1.373-3.674,3.456l-24.123,0.365l22.357,1.442
			c-7.92,8.364-18.537,23.156,12.509,17.12c0,0,62.441-14.138,117.813,12.96c0,0,14.139,18.85,42.414,1.178
			c28.274-17.672,56.55-45.947,56.55-45.947s8.257,6.259,24.062,11.507c19.178,7.749,47.218,15.99,74.313,12.646
			c0,0,9.426-0.59,10.604,8.246c0,0,10.604,47.126,54.783,54.784C428.188,385.294,436.435,386.472,434.078,379.402z"/>
		<path d="M66.745,205.706c0.272,0.761,0.567,1.513,0.889,2.254c4.611,10.649,13.988,17.893,27.87,21.528l0.114,0.031
			c0.076,0.022,1.274,0.371,3.383,0.946l-48.529-1.617l72.166,7.38c18.786,4.094,44.416,8.545,67.051,8.546c0.004,0,0.004,0,0.008,0
			c27.112,0,43.452-6.154,48.563-18.29l0.048-0.11c0.228-0.498,22.594-50.12,8.548-77.438c-4.559-8.867-12.356-14.274-23.837-16.528
			l-34.71-5.315c-0.244,0.315-0.48,0.634-0.728,0.945c-0.627,0.788-1.219,1.533-1.61,2.183c-0.644,1.071-1.339,2.064-2.011,3.024
			c-0.31,0.441-0.618,0.883-0.918,1.326l-27.367,40.543l-0.067,0.089c-1.964,2.589-2.337,2.962-2.497,3.121
			c-3.674,3.662-7.029,5.44-10.262,5.44c-0.001,0-0.001,0-0.001,0c-2.719,0-7.616-1.322-9.877-10.173
			c-0.83-3.256-0.087-9.631,0.16-11.508l0.024-0.188l9.59-41.78l-1.806-0.276l-0.176-0.043c-0.106-0.026-10.842-2.646-23.468-2.646
			c-13.486,0-30.669,3.023-37.497,17.104c-0.133,0.274-0.536,1.114-1.031,2.147l-15.207,0.21l14.548,1.167
			c-0.347,0.723-0.7,1.462-1.02,2.13c-2.722,5.689-7.97,17.717-10.887,31.236l-39.714-0.75l38.992,4.414
			c-1.605,8.969-2.025,18.382,0.079,26.908l-56.087-1.869L66.745,205.706z"/>
	</g>
	<g>
		<path d="M-2223.112-331.412l-58.362,4.956l57.789,1.484c-0.158,3.818,0.019,7.555,0.501,11.159l-36.173,2.332l36.904,1.968
			c3.486,16.708,13.822,29.853,28.465,33.56c22.64,5.731,46.977-13.259,54.357-42.416s-4.989-57.44-27.629-63.171
			c-7.887-1.997-15.979-0.985-23.488,2.402l-76.957,1.04l64.501,7.268c-5.338,4.866-9.98,11.07-13.506,18.288l-30.636,3.154
			l27.905,3.264c-0.831,2.261-1.566,4.592-2.176,7C-2222.271-336.541-2222.762-333.967-2223.112-331.412z"/>
		<path d="M-2254.646-240.985c-4.559-8.867-12.356-14.274-23.837-16.528l-34.71-5.315c-0.244,0.315-0.48,0.634-0.728,0.945
			c-0.627,0.788-1.219,1.533-1.61,2.183c-0.644,1.071-1.339,2.064-2.011,3.024c-0.31,0.441-0.618,0.883-0.918,1.326l-27.367,40.543
			l-0.067,0.089c-1.964,2.589-2.337,2.962-2.497,3.121c-3.674,3.662-7.029,5.44-10.262,5.44c-0.001,0-0.001,0-0.001,0
			c-2.719,0-7.616-1.322-9.877-10.173c-0.83-3.256-0.087-9.631,0.16-11.508l0.024-0.188l9.59-41.78l-1.806-0.276l-0.176-0.043
			c-0.106-0.026-10.842-2.646-23.468-2.646c-13.486,0-30.669,3.023-37.497,17.104c-0.273,0.564-1.678,3.496-2.71,5.654
			c-5.187,10.843-19.565,44.701-9.454,68.051c4.611,10.649,13.988,17.893,27.87,21.528l0.114,0.031
			c0.52,0.153,52.381,15.254,94.07,15.255c0.004,0,0.004,0,0.008,0c27.112,0,43.452-6.154,48.563-18.29l0.048-0.11
			C-2262.966-164.046-2240.6-213.668-2254.646-240.985z"/>
		<path d="M-2067.422-10.52c0,0-24.151-48.303-26.508-71.276c0,0-3.534-30.043-39.468-40.646l-63.619-17.672
			c0,0-12.96-8.247-8.247-23.563s14.138-32.988,14.138-32.988s7.069-8.247,14.138-7.068c7.069,1.178,68.332,10.604,68.332,10.604
			s22.385,0,23.563-8.247c1.179-8.247,7.069-70.688,7.069-70.688s0-17.256-15.479-4.301c-0.35,0.292-1.101,1.285-1.764,2.206
			c-0.664,0.92-2.023,3.724-2.023,3.724l-11.351,28.377c0,0-1.404,4.357-1.986,6.189c-1.359,4.279-4.74,11.049-12.166,8.574
			c-8.959-2.987-66.696-48.024-97.183-59.081c-2.716-0.984-9.023-2.438-11.128-2.934c-13.845-3.255-62.14-14.916-76.271-18.33
			c-2.486-0.601-3.921-0.947-3.921-0.947s-20.642-4.288-32.529,6.961l-68.884,0.402l64.188,5.862
			c-0.158,0.304-0.326,0.596-0.475,0.912l-3.252,14.17l-114.035-3.815l77.092,7.463c15.404-0.855,29.417,2.625,29.417,2.625
			l3.949,0.604l1.955,0.189l-10.534,45.899c0,0-0.954,7.234-0.25,9.994c1.35,5.284,4.797,11.506,13.436,2.895
			c0.34-0.34,2.139-2.711,2.139-2.711c3.553-5.264,7.105-10.526,10.658-15.79c5.549-8.22,11.098-16.44,16.646-24.66
			c0.935-1.386,1.957-2.744,2.818-4.177c0.848-1.408,2.11-2.787,3.171-4.251l0.823-1.132l37.167,5.691
			c58.525,11.401,18.241,99.569,18.241,99.569c-5.674,13.477-22.087,19.081-42.007,20.411c-0.019,0.234-0.044,0.471-0.062,0.705
			l-56.264-1.063l56.033,6.344c-0.007,0.422-0.018,0.845-0.018,1.265l-7.473,10.619l-103.227-3.44l98.556,10.079l-10.241,14.552
			c0,0-11.781,5.891-20.027,1.179c0,0-37.977-9.488-74.766-1.524l-75.976,3.033l61.107,1.263
			c-9.751,3.606-19.019,8.779-27.003,16.079c0,0-1.582,1.373-3.674,3.456l-24.123,0.365l22.357,1.442
			c-7.92,8.364-18.537,23.156,12.509,17.12c0,0,62.441-14.138,117.813,12.96c0,0,14.139,18.85,42.414,1.178
			c28.274-17.672,56.55-45.947,56.55-45.947s8.257,6.259,24.062,11.507c19.178,7.749,47.218,15.99,74.313,12.646
			c0,0,9.426-0.59,10.604,8.246c0,0,10.604,47.126,54.783,54.784C-2073.313-4.628-2065.065-3.45-2067.422-10.52z"/>
		<polygon points="-2371.803,-254.223 -2437.94,-253.31 -2373.649,-248.153 		"/>
		<polygon points="-2412.571,-212.457 -2475.013,-219.526 -2412.571,-218.348 		"/>
		<polygon points="-2385.996,-186.539 -2492.028,-190.073 -2388.353,-179.471 		"/>
		<polygon points="-2344.996,-157.539 -2451.028,-161.073 -2347.353,-150.471 		"/>
	</g>
	<rect x="-870.276" y="-552.304" width="651.065" height="1269.127"/>
	<g>
		<path fill="#FEDA00" d="M-517.538-351.858l-58.362,4.956l57.789,1.484c-0.158,3.818,0.019,7.555,0.501,11.159l-36.173,2.332
			l36.904,1.968c3.486,16.708,13.822,29.853,28.465,33.56c22.64,5.731,46.977-13.259,54.357-42.416s-4.989-57.44-27.629-63.171
			c-7.887-1.997-15.979-0.985-23.488,2.402l-76.957,1.04l64.501,7.268c-5.338,4.866-9.98,11.07-13.506,18.288l-30.636,3.154
			l27.905,3.264c-0.831,2.261-1.566,4.592-2.176,7C-516.696-356.987-517.188-354.413-517.538-351.858z"/>
		<path fill="#FEDA00" d="M-361.848-30.966c0,0-24.151-48.303-26.508-71.275c0,0-3.534-30.043-39.468-40.647l-63.619-17.672
			c0,0-12.96-8.247-8.247-23.563s14.138-32.988,14.138-32.988s7.069-8.247,14.138-7.068c7.069,1.178,68.332,10.604,68.332,10.604
			s22.385,0,23.563-8.247c1.179-8.247,7.069-70.688,7.069-70.688s0-17.256-15.479-4.301c-0.35,0.292-1.101,1.285-1.764,2.206
			c-0.664,0.92-2.023,3.724-2.023,3.724l-11.351,28.377c0,0-1.404,4.357-1.986,6.189c-1.359,4.279-4.74,11.049-12.166,8.574
			c-8.959-2.987-66.696-48.024-97.183-59.081c-2.716-0.984-9.023-2.438-11.128-2.934c-13.845-3.255-62.14-14.916-76.271-18.33
			c-2.486-0.601-3.921-0.947-3.921-0.947s-20.642-4.288-32.529,6.961l-68.884,0.402l64.188,5.862
			c-0.158,0.304-0.326,0.596-0.475,0.912l-3.252,14.17l-114.035-3.815l112.413,10.882l-10.534,45.899c0,0-0.954,7.234-0.25,9.994
			c1.35,5.284,4.797,11.506,13.436,2.895c0.34-0.34,2.139-2.711,2.139-2.711c3.553-5.264,7.105-10.526,10.658-15.79
			c5.549-8.22,11.098-16.44,16.646-24.66c0.935-1.386,1.957-2.744,2.818-4.177c0.848-1.408,2.11-2.787,3.171-4.251h40.195v-0.02
			h38.515v6.433c0.004,0.09,0.014,0.179,0.014,0.27v100.727c0,0.195-0.013,0.388-0.029,0.579v6.207h-12.308v-0.103h-50.819
			c-0.652,3.751-1.134,7.481-1.404,11.152l-56.264-1.063l56.033,6.344c-0.007,0.422-0.018,0.845-0.018,1.265l-7.473,10.619
			l-103.227-3.44l98.556,10.08l-10.241,14.551c0,0-11.781,5.891-20.027,1.18c0,0-37.977-9.488-74.766-1.525l-75.976,3.033
			l61.107,1.264c-9.751,3.605-19.019,8.779-27.003,16.078c0,0-1.582,1.373-3.674,3.457l-24.123,0.365l22.357,1.441
			c-7.92,8.365-18.537,23.156,12.509,17.121c0,0,62.441-14.139,117.813,12.959c0,0,14.139,18.85,42.414,1.178
			c28.274-17.672,56.55-45.947,56.55-45.947s8.257,6.26,24.062,11.508c19.178,7.748,47.218,15.99,74.313,12.645
			c0,0,9.426-0.59,10.604,8.246c0,0,10.604,47.127,54.783,54.785C-367.738-25.073-359.491-23.896-361.848-30.966z"/>
		<path fill="#FEDA00" d="M-774.996-204.825l60.518,6.188l-0.008,21.271l170.786-0.003v0.003h7.208v-1.647
			c0-0.014,0.004-0.025,0.004-0.039v-100.727c0-0.014-0.004-0.025-0.004-0.039v-1.651h-7.208v0.008h-64.058
			c-1.537,1.682-2.387,3.081-3.455,4.836c-0.299,0.491-0.609,1.004-0.953,1.549c-5.768,9.163-12.035,18.238-18.096,27.015
			c-3.021,4.374-6.145,8.897-9.189,13.406l-0.07,0.095c-2,2.636-2.396,3.032-2.589,3.226c-3.869,3.856-7.457,5.731-10.969,5.731
			c-3.009,0-8.417-1.419-10.845-10.926c-0.852-3.333-0.188-9.422,0.137-11.886l0.041-0.279l7.521-32.767l-58.261-0.009l0.008,12.905
			l-36.428,0.503l36.428,2.922v31.683l-43.5-0.821l43.5,4.925v26.546L-774.996-204.825z"/>
	</g>
	<text transform="matrix(1 0 0 1 -97.4961 535.4736)" font-family="'Roboto-Light'" font-size="31">Marketplace for Runner and Personal Shopper</text>
	<text transform="matrix(1 0 0 1 109.9873 450.6279)" font-family="'HelveticaLTStd-BlkObl'" font-size="80.1443">Runr</text>
</g>
<g id="Layer_3" display="none">
</g>
</svg>
