<?xml version="1.0" encoding="utf-8"?>
<!-- Generator: Adobe Illustrator 16.0.0, SVG Export Plug-In . SVG Version: 6.00 Build 0)  -->
<!DOCTYPE svg PUBLIC "-//W3C//DTD SVG 1.1//EN" "http://www.w3.org/Graphics/SVG/1.1/DTD/svg11.dtd">
<svg version="1.1" xmlns="http://www.w3.org/2000/svg" xmlns:xlink="http://www.w3.org/1999/xlink" x="0px" y="0px" width="588px"
	 height="1096px" viewBox="0 0 588 1096" enable-background="new 0 0 588 1096" xml:space="preserve">
<g id="Layer_1" display="none">
	<path display="inline" d="M393.016-441.357v0.003l-126.685-0.016c-6.053,0-10.959,4.906-10.959,10.958
		c0,6.053,4.906,10.959,10.959,10.959h30.314l-2.277,8.083h-38.037c-6.053,0-10.959,4.906-10.959,10.958
		c0,6.053,4.906,10.959,10.959,10.959h31.861l-2.278,8.083h-39.583c-6.053,0-10.959,4.906-10.959,10.958
		c0,6.053,4.906,10.959,10.959,10.959h33.408l-2.278,8.083h-41.13c-6.053,0-10.959,4.906-10.959,10.958
		c0,6.053,4.906,10.959,10.959,10.959h34.954l-2.277,8.083h-42.677c-6.053,0-10.959,4.906-10.959,10.958
		c0,6.053,4.906,10.959,10.959,10.959h87.96l22.939-81.41c2.293-4.973,9.59-16.863,27.58-19.338h28.205h2.453h1.933
		c25.343-1.898,31.405-21.841,31.405-21.841l0.427-1.282l5.081-18.028L393.016-441.357z"/>
	<circle display="inline" cx="336.016" cy="-477" r="28"/>
</g>
<g id="Layer_2">
	<path d="M-204.648-393.117l0.003-0.005l-59.518-36.846c-77.844-48.195-126.018,29.282-126.277,29.699l-0.012-0.007l-36.848,59.517
		c-26.487,42.786-69.379,16.324-69.379,16.324l-21.76,35.142c78.058,48.325,126.284-29.709,126.284-29.709l36.841-59.507
		l0.012,0.008c26.488-42.785,69.383-16.324,69.383-16.324l59.229,36.669c42.577,26.506,16.165,69.294,16.165,69.294l35.137,21.77
		C-129.096-341.826-198.663-389.229-204.648-393.117z"/>
	<g>
		<path d="M-156.259-30.878l-49.497,49.498c0,0-35.693,35.582-71.275,0l-0.011,0.01l-49.489-49.49c0,0-64.815-64.914-129.73,0
			l-49.497,49.498l29.227,29.227l49.498-49.497c0,0,35.693-35.582,71.275,0l49.498,49.497l0.01-0.01
			c0.335,0.335,64.977,64.737,129.723-0.008l49.497-49.498L-156.259-30.878z"/>
		<circle cx="-279.063" cy="-52.999" r="40"/>
	</g>
	<path d="M-453.823-528.328c0,6.259-5.074,11.333-11.333,11.333l0,0c-6.259,0-11.333-5.074-11.333-11.333v-78.001
		c0-6.259,5.074-11.333,11.333-11.333l0,0c6.259,0,11.333,5.074,11.333,11.333V-528.328z"/>
	<path d="M-366.823-528.328c0,6.259-5.074,11.333-11.333,11.333l0,0c-6.259,0-11.333-5.074-11.333-11.333v-78.001
		c0-6.259,5.074-11.333,11.333-11.333l0,0c6.259,0,11.333,5.074,11.333,11.333V-528.328z"/>
	<path d="M-399.824-605.495c0,6.72-5.244,12.167-11.713,12.167h-53.241c-6.469,0-11.713-5.447-11.713-12.167l0,0
		c0-6.719,5.244-12.167,11.713-12.167h53.241C-405.068-617.662-399.824-612.214-399.824-605.495L-399.824-605.495z"/>
	<path d="M-160.49-528.328c0,6.259-5.074,11.333-11.333,11.333l0,0c-6.259,0-11.333-5.074-11.333-11.333v-78.001
		c0-6.259,5.074-11.333,11.333-11.333l0,0c6.259,0,11.333,5.074,11.333,11.333V-528.328z"/>
	<path d="M-106.49-605.495c0,6.72-5.244,12.167-11.713,12.167h-53.24c-6.469,0-11.713-5.447-11.713-12.167l0,0
		c0-6.719,5.244-12.167,11.713-12.167h53.24C-111.734-617.662-106.49-612.214-106.49-605.495L-106.49-605.495z"/>
	<path d="M-335.491-606.329c0-6.259,5.074-11.333,11.333-11.333l0,0c6.26,0,11.334,5.074,11.334,11.333v78.001
		c0,6.259-5.074,11.333-11.334,11.333l0,0c-6.259,0-11.333-5.074-11.333-11.333V-606.329z"/>
	<path d="M-389.49-529.162c0-6.72,5.244-12.167,11.713-12.167h53.241c6.469,0,11.713,5.447,11.713,12.167l0,0
		c0,6.719-5.244,12.166-11.713,12.166h-53.241C-384.246-516.996-389.49-522.443-389.49-529.162L-389.49-529.162z"/>
	<path d="M-245.491-606.329c0-6.259,5.074-11.333,11.334-11.333l0,0c6.259,0,11.333,5.074,11.333,11.333v78.001
		c0,6.259-5.074,11.333-11.333,11.333l0,0c-6.26,0-11.334-5.074-11.334-11.333V-606.329z"/>
	<path d="M-276.824-528.328c0,6.259-5.074,11.333-11.332,11.333l0,0c-6.26,0-11.334-5.074-11.334-11.333v-78.001
		c0-6.259,5.074-11.333,11.334-11.333l0,0c6.258,0,11.332,5.074,11.332,11.333V-528.328z"/>
	<path d="M-222.824-605.495c0,6.72-5.244,12.167-11.713,12.167h-53.24c-6.469,0-11.713-5.447-11.713-12.167l0,0
		c0-6.719,5.244-12.166,11.713-12.166h53.24C-228.068-617.661-222.824-612.214-222.824-605.495L-222.824-605.495z"/>
	<path d="M-189.157-529.994c0,6.996-5.671,12.667-12.667,12.667l0,0c-6.995,0-12.666-5.671-12.666-12.667l0,0
		c0-6.995,5.671-12.666,12.666-12.666l0,0C-194.828-542.66-189.157-536.989-189.157-529.994L-189.157-529.994z"/>
	<g>
		<path d="M-222.895-1473.608l0.003-0.005l-59.518-36.846c-77.844-48.195-126.018,29.282-126.277,29.699l-0.012-0.007
			l-36.848,59.517c-26.487,42.785-69.379,16.324-69.379,16.324l-21.76,35.142c78.058,48.325,126.284-29.71,126.284-29.71
			L-373.56-1459l0.012,0.008c26.488-42.785,69.383-16.324,69.383-16.324l59.229,36.669c42.577,26.506,16.165,69.294,16.165,69.294
			l35.137,21.771C-147.342-1422.318-216.909-1469.72-222.895-1473.608z"/>
		<g>
			<circle cx="-263.063" cy="-1662.625" r="40.001"/>
			<path d="M-166.45-1622.969l-10.426,15.797c0,0-27.827,42.021-69.825,14.302l-0.009,0.012l-58.413-38.553
				c0,0-76.523-50.588-127.092,26.032l-38.558,58.424l34.498,22.767l38.559-58.422c0,0,27.828-42.021,69.826-14.302l58.424,38.558
				l0.007-0.011c0.396,0.261,76.646,50.382,127.083-26.038l11.178-16.937L-166.45-1622.969z"/>
		</g>
		<path d="M-300.03-1572.832c7.063-10.62,7.449-22.781,0.859-27.165l-9.176-6.104c-6.589-4.383-17.657,0.671-24.722,11.291
			l-75.141,112.953c-7.065,10.619-7.45,22.781-0.86,27.165l9.175,6.104c6.589,4.383,17.658-0.671,24.722-11.291L-300.03-1572.832z"
			/>
		<polygon points="-360.81,-1648.506 -518.81,-1642.506 -362.81,-1632.506 		"/>
		<polygon points="-358.81,-1526.506 -516.81,-1520.506 -360.81,-1510.506 		"/>
		<polygon points="-199.81,-1411.506 -357.81,-1405.506 -201.81,-1395.506 		"/>
		<polygon points="-422.81,-1450.506 -580.81,-1444.506 -424.81,-1434.506 		"/>
		<polygon points="-384.81,-1490.633 -500.81,-1486.228 -386.278,-1478.886 		"/>
		<polygon points="-418.81,-1590.633 -534.81,-1586.228 -420.278,-1578.886 		"/>
		<polygon points="-320.81,-1561.519 -414.81,-1557.95 -322,-1552 		"/>
		<polygon points="-382.81,-1617.519 -476.81,-1613.95 -384,-1608 		"/>
		<polygon points="-238.81,-1663.519 -332.809,-1659.95 -239.999,-1654 		"/>
		<polygon points="-166.227,-1622.886 -208.227,-1621.291 -166.759,-1618.632 		"/>
		<polygon points="-274.894,-1700.886 -316.894,-1699.291 -275.426,-1696.632 		"/>
		<polygon points="-193.81,-1436.405 -265.81,-1433.671 -194.722,-1429.114 		"/>
		<polygon points="-147.81,-1606.519 -241.81,-1602.95 -149,-1597 		"/>
		<polygon points="-286.476,-1683.186 -380.476,-1679.616 -287.667,-1673.667 		"/>
		<polygon points="-199.81,-1375.019 -293.81,-1371.45 -201,-1365.5 		"/>
		<polygon points="-432.81,-1563.519 -526.81,-1559.95 -434,-1554 		"/>
		<polygon points="-412.81,-1419.519 -506.81,-1415.95 -414,-1410 		"/>
		<polygon points="-480.81,-1393.519 -574.81,-1389.95 -482,-1384 		"/>
		<polygon points="-253.81,-1461.519 -347.81,-1457.95 -255,-1452 		"/>
	</g>
	<path d="M-352.468,210.301c9.43,4.047,19.351,7.566,28.492,11.922c17.791,8.478,34.283,14.953,52.758,20.781
		c10.159,3.204,18.506,7.229,27.938,12.051c10.4,5.319,23.232,7.754,33.104,13.974c4.25,2.678,6.063,6.091,10.948,8.968
		c4.235,2.495,9.252,3.98,14.03,5.787c12.692,4.799,26.176,9.241,39.119,14.217c11.959,4.598,24.563,3.355,37.338,1.052
		c16.539-2.982,16.777-6.289,21.465-20.881c6.301-19.619,6.71-39.164,17.355-57.262c-0.059-0.749-0.103-0.773-0.133-0.075
		c6.596,23.517,7.811,49.822,8.055,73.892c0.236,23.239-6.314,56.314-24.219,72.052c-24.487,21.523-70.893,7.379-97.825-0.723
		c-14.228-4.28-24.814-11.621-33.153,3.945c-4.657,8.692-6.397,16.157-6.854,26c-1.459,31.4,17.252,40.431,41.048,58.246
		c10.509,7.866,19.705,16.12,30.984,22.73c10.234,5.998,15.899,11.332,20.996,21.777c6.883,14.104,11.226,27.159,14.997,42.346
		c4.181,16.834,5.619,35.444,10.951,51.849c7.255,22.318,29.3,43.452,28.075,67.274c-0.305,5.932,1.311,7.43-4.004,9.801
		c-6.058,2.703-21.15-5.056-26.014-8.246c-9.678-6.348-19.104-13.655-25.959-22.804c-16.433-21.931-25.821-46.707-38.221-70.896
		c-11.093-21.639-22.4-34.841-42.552-48.254c-9.309-6.196-17.136-13.335-28.199-17.824c-10.589-4.297-21.22-7.188-32.132-10.775
		c-20.039-6.585-28.261,30.949-34.19,44.775c-3.954,9.218-5.755,20.64-12.483,29.048c-9.278,11.593-27.873,11.54-42.243,11.952
		c-28.985,0.832-56.982-15.957-85.833-20.026c-32.723-4.616-68.035-4.974-101.167-4.974c-9.23,0-28.134,1.691-32-5.952
		c-4.94-9.768,7.138-20.528,14.02-24.822c21.385-13.34,54.26-16.843,79.176-16.226c24.057,0.596,47.757,11.989,71.993,4.996
		c19.122-5.517,40.226-24.37,45.807-43.995c3.526-12.399,1.004-18.399-3.219-29.173c-2.767-7.062-2.202-16.055-1.78-23.828
		c0.883-16.276,3.334-31.52,7.223-47.004c4.165-16.586,8.795-28.311,19.002-42.199c6.267-8.527,14.741-17.285,8.549-26.801
		c-6.102-9.377-20.083-13.208-28.709-19.934c-11.626-9.066-24.083-17.975-39.068-20.066c-10.542-1.471-18.397-4.335-25.774,4.501
		c-7.497,8.979-8.331,23.365-9.219,34.726c-0.953,12.181,6.205,53.698-7.98,58.801c-20.185,7.26-31.925-48.146-33.075-60.027
		c-1.639-16.938,0.859-34.708,3.974-50.968c2.745-14.333,3.416-32.965,13.026-45.028c9.91-12.439,29.753-9.629,44.029-9
		c7.988,0.352,18.292-0.05,26.017,1.976c6.352,1.665,12.319,5.24,18.622,7.028C-369.962,201.678-361.423,206.457-352.468,210.301z"
		/>
	<path d="M-282.138,118.972c-2.774,31.197-10.622,80.631,13.84,105.027c14.463,14.424,30.452,24.339,50.981,15.748
		c19.341-8.093,32.821-26.37,39.767-45.729c11.92-33.225,26.414-94.477-15.921-109.25c-16.426-5.732-42.737-11.78-60.306-8.823
		C-276.935,79.842-280.128,96.382-282.138,118.972z"/>
	<path d="M-172.086,160c-19.08-1.469-39.552-6.289-59.123-8.571c-9.719-1.133-20.109-2.459-29.505-5.099
		c-11.396-3.201-22.431-8.429-33.407-12.733c-6.578-2.579-23.839-2.031-21.931-14.608c16.308-1.01,29.126,9.317,44.973,11.01
		c11.441,1.223,22.508-0.854,33.828-0.854c17.841,0,34.763,0.1,51.701,6.622c6.033,2.323,12.408,5.262,15.126,12.023
		c2.278,5.672,0.382,16.761-6.095,9.64"/>
	<path d="M-447.403,193.078c-6.257,2.99-18.618,1.5-26.8,1.5c-26.509,0-53.018,0-79.526,0c-15.504,0-42.69-4.631-55.759,2.637
		c45.608,3.771,87.726,18.31,133.916,18.362c6.625,0.008,26.285,2.271,31.277-2.56c6.19-5.989,4.038-24.37-6.106-24.439"/>
	<path d="M-456.403,241.076c-31.083,0-63.18-1.848-94.114,0.305c13.546,7.082,105.979,36.376,91.114-3.305"/>
	<path d="M-370.907,389.568c-73.599,0-148.487-8.115-222.083-2.666c64.143,9.943,130.144,20.503,194.828,26.665
		c15.356,1.463,51.718,1.909,31.755-23.999"/>
	<path d="M-334.909,344.57c-25.331,0-51.25,1.347-76.454-0.256c11-9.777,81.9-15.559,85.368,3.142
		c-4.527,0.227-9.049-1.524-11.915-4.385"/>
	<path d="M-358.908,472.064c-37.707-2.548-80.279-6.774-115.588-7.572c28.497,4.428,55.128,13.866,84.09,15.072
		c11.888,0.495,23.086,4.534,34.271,4.272c0.267-3.998,1.137-9.3,0.227-13.272"/>
	<path d="M-472.902,280.074c-15.231,12.039-66.525,3-87.097,3c-14.379,0-28.757,0-43.136,0c32.78,0.082,65.506,2.991,97.347,6.111
		c11.944,1.17,25.344,6.007,37.16,4.161c0.805-2.732,0.621-7.122-0.334-9.712c-2.243-0.735-4.55-0.886-6.939-0.561"/>
	<path d="M-460.902,323.572c-10.192,14.608-78.375,3.506-98.427,4.755c15.839,8.53,46.094,7.883,64.417,8.739
		c12.112,0.565,24.757,0.429,36.788-0.217c3.06-6.194,3.37-14.441-5.778-13.277"/>
	<path d="M-409.905,511.063c-17.223,6.494-57.825-11.422-76.999-14.612c-13.158-2.189-26.515-2.896-39.579-4.814
		c-18.346-2.694-37.663-2.805-55.533-7.238c38.71-2.57,75.948,12.118,111.958,19.576c23.475,4.862,44.442,10.073,65.885,17.391
		c0.9-7.257-2.708-13.578-10.233-13.302"/>
	<path d="M-325.909,272.574c-21.517,7.228-74.956-8.421-91.411,10.161c19.531,1.599,39.864,0.339,59.579,0.339
		c10.892,0,36.543,5.61,34.832-10.5"/>
	<g>
		<path d="M-159.705-777.84c0,0-24.151-48.303-26.508-71.276c0,0-3.534-30.043-39.468-40.646l-63.619-17.672
			c0,0-12.96-8.247-8.247-23.563s14.138-32.988,14.138-32.988s7.069-8.247,14.138-7.068c7.069,1.178,68.332,10.604,68.332,10.604
			s22.385,0,23.563-8.247c1.179-8.247,7.069-70.688,7.069-70.688s0-17.256-15.479-4.301c-0.35,0.292-1.101,1.285-1.764,2.206
			c-0.664,0.92-2.023,3.724-2.023,3.724l-11.351,28.377c0,0-1.404,4.357-1.986,6.189c-1.359,4.279-4.74,11.049-12.166,8.574
			c-10.604-3.535-89.538-65.976-110.745-61.264l-77.757-20.028c0,0-28.275-5.891-37.7,14.138l-16.494,71.866
			c0,0,1.178,22.385,15.316,7.069l31.81-47.126l49.482,31.81c0,0-32.988,54.194-32.988,96.607l-22.385,31.81
			c0,0-11.781,5.891-20.028,1.179c0,0-75.401-18.851-116.636,18.851c0,0-35.344,30.631,7.069,22.384
			c0,0,62.441-14.138,117.814,12.96c0,0,14.138,18.85,42.413,1.178c28.275-17.672,56.55-45.947,56.55-45.947
			s8.257,6.259,24.062,11.507c19.178,7.749,47.218,15.99,74.313,12.646c0,0,9.426-0.59,10.604,8.246
			c0,0,10.604,47.126,54.783,54.784C-165.596-771.948-157.349-770.771-159.705-777.84z"/>
		
			<ellipse transform="matrix(0.9694 0.2454 -0.2454 0.9694 -277.3336 33.4556)" cx="-272.907" cy="-1096.067" rx="42.286" ry="54.459"/>
		<polygon points="-272.806,-1146.596 -359.988,-1145.418 -276.34,-1135.993 		"/>
		<polygon points="-298.461,-1120.946 -339.629,-1116.708 -296.699,-1111.688 		"/>
		<polygon points="-303.509,-1099.742 -373.758,-1093.776 -305.164,-1092.015 		"/>
		<polygon points="-301.374,-1082.042 -351.641,-1078.801 -304.76,-1076.301 		"/>
		<polygon points="-425.133,-1071.616 -505.117,-1065.843 -426.815,-1063.895 		"/>
		<polygon points="-434.573,-1047.268 -558.566,-1051.416 -440.157,-1039.954 		"/>
		<polygon points="-442.458,-1021.714 -508.433,-1026.426 -444.814,-1015.823 		"/>
		<polygon points="-361.166,-987.548 -422.429,-987.548 -362.344,-982.835 		"/>
		<polygon points="-378.838,-953.382 -491.939,-956.916 -377.66,-947.491 		"/>
		<polygon points="-384.729,-922.75 -447.17,-929.819 -384.729,-928.641 		"/>
		<polygon points="-394.154,-896.831 -500.187,-900.365 -396.51,-889.763 		"/>
		<polygon points="-489.583,-868.556 -590.903,-875.625 -491.939,-862.665 		"/>
		<polygon points="-540.243,-852.063 -618,-850.884 -544.956,-846.171 		"/>
	</g>
	<g>
		
			<ellipse transform="matrix(0.9694 0.2454 -0.2454 0.9694 -190.8951 149.0529)" cx="-693.519" cy="-691.436" rx="42.286" ry="54.459"/>
		<polygon points="-693.418,-741.965 -780.601,-740.787 -696.952,-731.362 		"/>
		<polygon points="-719.073,-716.315 -760.241,-712.077 -717.312,-707.057 		"/>
		<polygon points="-724.121,-695.111 -794.37,-689.146 -725.776,-687.384 		"/>
		<polygon points="-721.986,-677.411 -772.253,-674.17 -725.372,-671.67 		"/>
		<polygon points="-906.435,-466.468 -1007.92,-462.416 -908.133,-460.354 		"/>
		<polygon points="-923.855,-442.432 -1001.612,-441.253 -928.568,-436.54 		"/>
		<path d="M-580.317-373.209c0,0-24.151-48.303-26.508-71.276c0,0-3.534-30.043-39.468-40.646l-63.619-17.672
			c0,0-12.96-8.247-8.247-23.563s14.138-32.988,14.138-32.988s7.069-8.247,14.138-7.068c7.069,1.178,68.332,10.604,68.332,10.604
			s22.385,0,23.563-8.247c1.179-8.247,7.069-70.688,7.069-70.688s0-17.256-15.479-4.301c-0.35,0.292-1.101,1.285-1.764,2.206
			c-0.664,0.92-2.023,3.724-2.023,3.724l-11.351,28.377c0,0-1.404,4.357-1.986,6.189c-1.359,4.279-4.74,11.049-12.166,8.574
			c-8.959-2.987-66.696-48.024-97.183-59.081c-2.716-0.984-9.023-2.438-11.128-2.934c-13.845-3.255-62.14-14.916-76.271-18.33
			c-2.486-0.601-3.92-0.947-3.92-0.947s-28.275-5.891-37.7,14.138l-15.409,67.136c0,0-0.954,7.234-0.25,9.994
			c1.35,5.284,4.796,11.506,13.436,2.895c0.34-0.34,2.139-2.711,2.139-2.711c3.553-5.264,7.105-10.526,10.658-15.79
			c5.549-8.22,11.097-16.44,16.646-24.66c0.935-1.386,1.958-2.744,2.819-4.177c0.847-1.408,2.11-2.787,3.17-4.251h72.042
			c3.685,0,6.682,2.998,6.682,6.683v100.727c0,3.686-2.997,6.684-6.682,6.684h-56.475c-1.044,6.006-1.652,11.96-1.652,17.698
			l-22.385,31.81c0,0-11.781,5.891-20.028,1.179c0,0-75.401-18.851-116.636,18.851c0,0-35.344,30.631,7.069,22.384
			c0,0,62.441-14.138,117.814,12.96c0,0,14.138,18.85,42.414,1.178c28.274-17.672,56.55-45.947,56.55-45.947
			s8.257,6.259,24.062,11.507c19.178,7.749,47.218,15.99,74.313,12.646c0,0,9.426-0.59,10.604,8.246
			c0,0,10.604,47.126,54.783,54.784C-586.208-367.317-577.961-366.14-580.317-373.209z"/>
		<polygon points="-845.414,-664.383 -925.604,-663.914 -847.603,-656.79 		"/>
		<polygon points="-855.185,-642.637 -979.179,-646.785 -860.77,-635.323 		"/>
		<path d="M-931.266-519.611c-0.928,0-1.683-0.755-1.683-1.684v-100.727c0-0.928,0.755-1.683,1.683-1.683h56.57l-7.521,32.767
			l-0.042,0.279c-0.325,2.464-0.987,8.553-0.137,11.886c2.428,9.507,7.837,10.926,10.845,10.926c3.512,0,7.1-1.875,10.969-5.731
			c0.193-0.193,0.588-0.59,2.588-3.226l0.07-0.095c3.045-4.509,6.169-9.032,9.189-13.406c6.061-8.776,12.329-17.852,18.096-27.015
			c0.344-0.545,0.655-1.058,0.954-1.549c1.067-1.755,1.918-3.154,3.455-4.836h69.587c0.928,0,1.682,0.755,1.682,1.683v100.727
			c0,0.929-0.754,1.684-1.682,1.684H-931.266z"/>
	</g>
	<polygon points="-903.239,-611.218 -969.376,-610.305 -905.086,-605.148 	"/>
	<polygon points="-808.341,-497.452 -870.782,-504.521 -808.341,-503.343 	"/>
	<polygon points="-914.007,-569.452 -976.449,-576.521 -914.007,-575.343 	"/>
	<polygon points="-819.433,-486.2 -925.465,-489.734 -821.789,-479.132 	"/>
	<polygon points="-887.433,-543.534 -993.465,-547.068 -889.789,-536.466 	"/>
	<g>
		
			<ellipse transform="matrix(0.9694 0.2454 -0.2454 0.9694 194.6641 -284.3035)" cx="1238.093" cy="638.933" rx="42.286" ry="54.459"/>
		<polygon points="1238.194,588.404 1151.012,589.582 1234.66,599.007 		"/>
		<polygon points="1212.539,614.054 1171.371,618.292 1214.301,623.313 		"/>
		<polygon points="1207.491,635.258 1137.242,641.224 1205.836,642.985 		"/>
		<polygon points="1209.626,652.958 1159.359,656.199 1206.24,658.699 		"/>
		<polygon points="1025.178,863.901 923.692,867.953 1023.479,870.015 		"/>
		<polygon points="1007.757,887.938 930,889.116 1003.045,893.829 		"/>
		<path d="M1351.295,957.16c0,0-24.151-48.303-26.508-71.276c0,0-3.534-30.043-39.468-40.646l-63.619-17.672
			c0,0-12.96-8.247-8.247-23.563s14.138-32.988,14.138-32.988s7.069-8.247,14.138-7.068c7.069,1.178,68.332,10.604,68.332,10.604
			s22.385,0,23.563-8.247c1.179-8.247,7.069-70.688,7.069-70.688s0-17.256-15.479-4.301c-0.35,0.292-1.101,1.285-1.764,2.206
			c-0.664,0.92-2.023,3.724-2.023,3.724l-11.351,28.377c0,0-1.404,4.357-1.986,6.189c-1.359,4.279-4.74,11.049-12.166,8.574
			c-8.959-2.987-66.696-48.024-97.183-59.081c-2.716-0.984-9.023-2.438-11.128-2.934c-13.845-3.255-62.14-14.916-76.271-18.33
			c-2.486-0.601-3.921-0.947-3.921-0.947s-28.275-5.891-37.7,14.138l-15.408,67.136c0,0-0.954,7.234-0.25,9.994
			c1.35,5.284,4.797,11.506,13.436,2.895c0.34-0.34,2.139-2.711,2.139-2.711c3.553-5.264,7.105-10.526,10.658-15.79
			c5.549-8.22,11.098-16.44,16.646-24.66c0.935-1.386,1.957-2.744,2.818-4.177c0.848-1.408,2.11-2.787,3.171-4.251h72.042
			c3.685,0,6.682,2.998,6.682,6.683v100.727c0,3.686-2.997,6.684-6.682,6.684h-56.475c-1.044,6.006-1.652,11.96-1.652,17.698
			l-22.385,31.81c0,0-11.781,5.891-20.027,1.179c0,0-75.401-18.851-116.637,18.851c0,0-35.344,30.631,7.069,22.384
			c0,0,62.441-14.138,117.813,12.96c0,0,14.139,18.85,42.414,1.178c28.274-17.672,56.55-45.947,56.55-45.947
			s8.257,6.259,24.062,11.507c19.178,7.749,47.218,15.99,74.313,12.646c0,0,9.426-0.59,10.604,8.246
			c0,0,10.604,47.126,54.783,54.784C1345.404,963.052,1353.651,964.229,1351.295,957.16z"/>
		<polygon points="1086.199,665.986 1006.008,666.455 1084.01,673.579 		"/>
		<polygon points="1076.428,687.732 952.434,683.584 1070.843,695.046 		"/>
		<path d="M1000.347,810.758c-0.929,0-1.683-0.755-1.683-1.684V708.348c0-0.928,0.754-1.683,1.683-1.683h56.57l-7.521,32.767
			l-0.041,0.279c-0.325,2.464-0.988,8.553-0.137,11.886c2.428,9.507,7.836,10.926,10.845,10.926c3.512,0,7.1-1.875,10.969-5.731
			c0.193-0.193,0.589-0.59,2.589-3.226l0.07-0.095c3.045-4.509,6.168-9.032,9.189-13.406c6.061-8.776,12.328-17.852,18.096-27.015
			c0.344-0.545,0.654-1.058,0.953-1.549c1.068-1.755,1.918-3.154,3.455-4.836h69.588c0.928,0,1.682,0.755,1.682,1.683v100.727
			c0,0.929-0.754,1.684-1.682,1.684H1000.347z"/>
	</g>
	<polygon points="1028.373,719.151 962.236,720.064 1026.525,725.221 	"/>
	<polygon points="1123.271,832.917 1060.83,825.848 1123.271,827.026 	"/>
	<polygon points="1017.605,760.917 955.164,753.848 1017.605,755.026 	"/>
	<polygon points="1112.18,844.169 1006.146,840.635 1109.823,851.237 	"/>
	<polygon points="1044.18,786.835 938.146,783.301 1041.823,793.903 	"/>
	<g>
		<path d="M1127.451-17.407l-58.362,4.956l57.789,1.484c-0.158,3.818,0.019,7.555,0.501,11.159l-36.173,2.332l36.904,1.968
			c3.486,16.708,13.822,29.853,28.465,33.56c22.64,5.731,46.977-13.259,54.357-42.416s-4.989-57.44-27.629-63.171
			c-7.887-1.997-15.979-0.985-23.488,2.402l-76.957,1.04l64.501,7.268c-5.338,4.866-9.98,11.07-13.506,18.288l-30.636,3.154
			l27.905,3.264c-0.831,2.261-1.566,4.592-2.176,7C1128.293-22.536,1127.802-19.962,1127.451-17.407z"/>
		<path d="M1283.142,303.485c0,0-24.151-48.303-26.508-71.276c0,0-3.534-30.043-39.468-40.646l-63.619-17.672
			c0,0-12.96-8.247-8.247-23.563s14.138-32.988,14.138-32.988s7.069-8.247,14.138-7.068c7.069,1.178,68.332,10.604,68.332,10.604
			s22.385,0,23.563-8.247c1.179-8.247,7.069-70.688,7.069-70.688s0-17.256-15.479-4.301c-0.35,0.292-1.101,1.285-1.764,2.206
			c-0.664,0.92-2.023,3.724-2.023,3.724l-11.351,28.377c0,0-1.404,4.357-1.986,6.189c-1.359,4.279-4.74,11.049-12.166,8.574
			c-8.959-2.987-66.696-48.024-97.183-59.081c-2.716-0.984-9.023-2.438-11.128-2.934c-13.845-3.255-62.14-14.916-76.271-18.33
			c-2.486-0.601-3.921-0.947-3.921-0.947s-20.642-4.288-32.529,6.961l-68.884,0.402l64.188,5.862
			c-0.158,0.304-0.326,0.596-0.475,0.912l-3.252,14.17L884.28,29.909l77.092,7.463c15.404-0.855,29.417,2.625,29.417,2.625
			l3.949,0.604l1.955,0.189L986.159,86.69c0,0-0.954,7.234-0.25,9.994c1.35,5.284,4.797,11.506,13.436,2.895
			c0.34-0.34,2.139-2.711,2.139-2.711c3.553-5.264,7.105-10.526,10.658-15.79c5.549-8.22,11.098-16.44,16.646-24.66
			c0.935-1.386,1.957-2.744,2.818-4.177c0.848-1.408,2.11-2.787,3.171-4.251l0.823-1.132l37.167,5.691
			c58.525,11.401,18.241,99.569,18.241,99.569c-5.674,13.477-22.087,19.081-42.007,20.411c-0.019,0.234-0.044,0.471-0.062,0.705
			l-56.264-1.063l56.033,6.344c-0.007,0.422-0.018,0.845-0.018,1.265l-7.473,10.619l-103.227-3.44l98.556,10.079l-10.241,14.552
			c0,0-11.781,5.891-20.027,1.179c0,0-37.977-9.488-74.766-1.524l-75.976,3.033l61.107,1.263
			c-9.751,3.606-19.019,8.779-27.003,16.079c0,0-1.582,1.373-3.674,3.456l-24.123,0.365l22.357,1.442
			c-7.92,8.364-18.537,23.156,12.509,17.12c0,0,62.441-14.138,117.813,12.96c0,0,14.139,18.85,42.414,1.178
			c28.274-17.672,56.55-45.947,56.55-45.947s8.257,6.259,24.062,11.507c19.178,7.749,47.218,15.99,74.313,12.646
			c0,0,9.426-0.59,10.604,8.246c0,0,10.604,47.126,54.783,54.784C1277.251,309.377,1285.498,310.555,1283.142,303.485z"/>
		<path d="M915.809,129.789c0.272,0.761,0.567,1.513,0.889,2.254c4.611,10.649,13.988,17.893,27.87,21.528l0.114,0.031
			c0.076,0.022,1.274,0.371,3.383,0.946l-48.529-1.617l72.166,7.38c18.786,4.094,44.416,8.545,67.051,8.546c0.004,0,0.004,0,0.008,0
			c27.112,0,43.452-6.154,48.563-18.29l0.048-0.11c0.228-0.498,22.594-50.12,8.548-77.438c-4.559-8.867-12.356-14.274-23.837-16.528
			l-34.71-5.315c-0.244,0.315-0.48,0.634-0.728,0.945c-0.627,0.788-1.219,1.533-1.61,2.183c-0.644,1.071-1.339,2.064-2.011,3.024
			c-0.31,0.441-0.618,0.883-0.918,1.326l-27.367,40.543l-0.067,0.089c-1.964,2.589-2.337,2.962-2.497,3.121
			c-3.674,3.662-7.029,5.44-10.262,5.44c-0.001,0-0.001,0-0.001,0c-2.719,0-7.616-1.322-9.877-10.173
			c-0.83-3.256-0.087-9.631,0.16-11.508l0.024-0.188l9.59-41.78l-1.806-0.276l-0.176-0.043c-0.106-0.026-10.842-2.646-23.468-2.646
			c-13.486,0-30.669,3.023-37.497,17.104c-0.133,0.274-0.536,1.114-1.031,2.147l-15.207,0.21l14.548,1.167
			c-0.347,0.723-0.7,1.462-1.02,2.13c-2.722,5.689-7.97,17.717-10.887,31.236l-39.714-0.75l38.992,4.414
			c-1.605,8.969-2.025,18.382,0.079,26.908l-56.087-1.869L915.809,129.789z"/>
	</g>
	<g>
		<path d="M-1374.049-407.329l-58.362,4.956l57.789,1.484c-0.158,3.818,0.019,7.555,0.501,11.159l-36.173,2.332l36.904,1.968
			c3.486,16.708,13.822,29.853,28.465,33.56c22.64,5.731,46.977-13.259,54.357-42.416s-4.989-57.44-27.629-63.171
			c-7.887-1.997-15.979-0.985-23.488,2.402l-76.957,1.04l64.501,7.268c-5.338,4.866-9.98,11.07-13.506,18.288l-30.636,3.154
			l27.905,3.264c-0.831,2.261-1.566,4.592-2.176,7C-1373.207-412.458-1373.698-409.884-1374.049-407.329z"/>
		<path d="M-1405.582-316.902c-4.559-8.867-12.356-14.274-23.837-16.528l-34.71-5.315c-0.244,0.315-0.48,0.634-0.728,0.945
			c-0.627,0.788-1.219,1.533-1.61,2.183c-0.644,1.071-1.339,2.064-2.011,3.024c-0.31,0.441-0.618,0.883-0.918,1.326l-27.367,40.543
			l-0.067,0.089c-1.964,2.589-2.337,2.962-2.497,3.121c-3.674,3.662-7.029,5.44-10.262,5.44c-0.001,0-0.001,0-0.001,0
			c-2.719,0-7.616-1.322-9.877-10.173c-0.83-3.256-0.087-9.631,0.16-11.508l0.024-0.188l9.59-41.78l-1.806-0.276l-0.176-0.043
			c-0.106-0.026-10.842-2.646-23.468-2.646c-13.486,0-30.669,3.023-37.497,17.104c-0.273,0.564-1.678,3.496-2.71,5.654
			c-5.187,10.843-19.565,44.701-9.454,68.051c4.611,10.649,13.988,17.893,27.87,21.528l0.114,0.031
			c0.52,0.153,52.381,15.254,94.07,15.255c0.004,0,0.004,0,0.008,0c27.112,0,43.452-6.154,48.563-18.29l0.048-0.11
			C-1413.902-239.963-1391.536-289.585-1405.582-316.902z"/>
		<path d="M-1218.358-86.437c0,0-24.151-48.303-26.508-71.276c0,0-3.534-30.043-39.468-40.646l-63.619-17.672
			c0,0-12.96-8.247-8.247-23.563s14.138-32.988,14.138-32.988s7.069-8.247,14.138-7.068c7.069,1.178,68.332,10.604,68.332,10.604
			s22.385,0,23.563-8.247c1.179-8.247,7.069-70.688,7.069-70.688s0-17.256-15.479-4.301c-0.35,0.292-1.101,1.285-1.764,2.206
			c-0.664,0.92-2.023,3.724-2.023,3.724l-11.351,28.377c0,0-1.404,4.357-1.986,6.189c-1.359,4.279-4.74,11.049-12.166,8.574
			c-8.959-2.987-66.696-48.024-97.183-59.081c-2.716-0.984-9.023-2.438-11.128-2.934c-13.845-3.255-62.14-14.916-76.271-18.33
			c-2.486-0.601-3.921-0.947-3.921-0.947s-20.642-4.288-32.529,6.961l-68.884,0.402l64.188,5.862
			c-0.158,0.304-0.326,0.596-0.475,0.912l-3.252,14.17l-114.035-3.815l77.092,7.463c15.404-0.855,29.417,2.625,29.417,2.625
			l3.949,0.604l1.955,0.189l-10.534,45.899c0,0-0.954,7.234-0.25,9.994c1.35,5.284,4.797,11.506,13.436,2.895
			c0.34-0.34,2.139-2.711,2.139-2.711c3.553-5.264,7.105-10.526,10.658-15.79c5.549-8.22,11.098-16.44,16.646-24.66
			c0.935-1.386,1.957-2.744,2.818-4.177c0.848-1.408,2.11-2.787,3.171-4.251l0.823-1.132l37.167,5.691
			c58.525,11.401,18.241,99.569,18.241,99.569c-5.674,13.477-22.087,19.081-42.007,20.411c-0.019,0.234-0.044,0.471-0.062,0.705
			l-56.264-1.063l56.033,6.344c-0.007,0.422-0.018,0.845-0.018,1.265l-7.473,10.619l-103.227-3.44l98.556,10.079l-10.241,14.552
			c0,0-11.781,5.891-20.027,1.179c0,0-37.977-9.488-74.766-1.524l-75.976,3.033l61.107,1.263
			c-9.751,3.606-19.019,8.779-27.003,16.079c0,0-1.582,1.373-3.674,3.456l-24.123,0.365l22.357,1.442
			c-7.92,8.364-18.537,23.156,12.509,17.12c0,0,62.441-14.138,117.813,12.96c0,0,14.139,18.85,42.414,1.178
			c28.274-17.672,56.55-45.947,56.55-45.947s8.257,6.259,24.062,11.507c19.178,7.749,47.218,15.99,74.313,12.646
			c0,0,9.426-0.59,10.604,8.246c0,0,10.604,47.126,54.783,54.784C-1224.249-80.545-1216.002-79.367-1218.358-86.437z"/>
		<polygon points="-1522.739,-330.14 -1588.877,-329.227 -1524.586,-324.07 		"/>
		<polygon points="-1563.508,-288.374 -1625.949,-295.443 -1563.508,-294.265 		"/>
		<polygon points="-1536.933,-262.456 -1642.965,-265.99 -1539.289,-255.388 		"/>
		<polygon points="-1495.933,-233.456 -1601.965,-236.99 -1498.289,-226.388 		"/>
	</g>
	<g>
		<path fill="#FEDA00" d="M331.525-427.775l-58.362,4.956l57.789,1.484c-0.158,3.818,0.019,7.555,0.501,11.159l-36.173,2.332
			l36.904,1.968c3.486,16.708,13.822,29.853,28.465,33.56c22.64,5.731,46.977-13.259,54.357-42.416s-4.989-57.44-27.629-63.171
			c-7.887-1.997-15.979-0.985-23.488,2.402l-76.957,1.04l64.501,7.268c-5.338,4.866-9.98,11.07-13.506,18.288l-30.636,3.154
			l27.905,3.264c-0.831,2.261-1.566,4.592-2.176,7C332.367-432.904,331.876-430.33,331.525-427.775z"/>
		<path fill="#FEDA00" d="M487.216-106.883c0,0-24.151-48.303-26.508-71.275c0,0-3.534-30.043-39.468-40.647l-63.619-17.672
			c0,0-12.96-8.247-8.247-23.563s14.138-32.988,14.138-32.988s7.069-8.247,14.138-7.068c7.069,1.178,68.332,10.604,68.332,10.604
			s22.385,0,23.563-8.247c1.179-8.247,7.069-70.688,7.069-70.688s0-17.256-15.479-4.301c-0.35,0.292-1.101,1.285-1.764,2.206
			c-0.664,0.92-2.023,3.724-2.023,3.724l-11.351,28.377c0,0-1.404,4.357-1.986,6.189c-1.359,4.279-4.74,11.049-12.166,8.574
			c-8.959-2.987-66.696-48.024-97.183-59.081c-2.716-0.984-9.023-2.438-11.128-2.934c-13.845-3.255-62.14-14.916-76.271-18.33
			c-2.486-0.601-3.921-0.947-3.921-0.947s-20.642-4.288-32.529,6.961l-68.884,0.402l64.188,5.862
			c-0.158,0.304-0.326,0.596-0.475,0.912l-3.252,14.17l-114.035-3.815l112.413,10.882l-10.534,45.899c0,0-0.954,7.234-0.25,9.994
			c1.35,5.284,4.797,11.506,13.436,2.895c0.34-0.34,2.139-2.711,2.139-2.711c3.553-5.264,7.105-10.526,10.658-15.79
			c5.549-8.22,11.098-16.44,16.646-24.66c0.935-1.386,1.957-2.744,2.818-4.177c0.848-1.408,2.11-2.787,3.171-4.251h40.195v-0.02
			h38.515v6.433c0.004,0.09,0.014,0.179,0.014,0.27v100.727c0,0.195-0.013,0.388-0.029,0.579v6.207h-12.308v-0.103h-50.819
			c-0.652,3.751-1.134,7.481-1.404,11.152l-56.264-1.063l56.033,6.344c-0.007,0.422-0.018,0.845-0.018,1.265l-7.473,10.619
			l-103.227-3.44l98.556,10.08l-10.241,14.551c0,0-11.781,5.891-20.027,1.18c0,0-37.977-9.488-74.766-1.525l-75.976,3.033
			l61.107,1.264c-9.751,3.605-19.019,8.779-27.003,16.078c0,0-1.582,1.373-3.674,3.457l-24.123,0.365l22.357,1.441
			c-7.92,8.365-18.537,23.156,12.509,17.121c0,0,62.441-14.139,117.813,12.959c0,0,14.139,18.85,42.414,1.178
			c28.274-17.672,56.55-45.947,56.55-45.947s8.257,6.26,24.062,11.508c19.178,7.748,47.218,15.99,74.313,12.645
			c0,0,9.426-0.59,10.604,8.246c0,0,10.604,47.127,54.783,54.785C481.325-100.99,489.572-99.813,487.216-106.883z"/>
		<path fill="#FEDA00" d="M74.067-280.742l60.518,6.188l-0.008,21.271l170.786-0.003v0.003h7.208v-1.647
			c0-0.014,0.004-0.025,0.004-0.039v-100.727c0-0.014-0.004-0.025-0.004-0.039v-1.651h-7.208v0.008h-64.058
			c-1.537,1.682-2.387,3.081-3.455,4.836c-0.299,0.491-0.609,1.004-0.953,1.549c-5.768,9.163-12.035,18.238-18.096,27.015
			c-3.021,4.374-6.145,8.897-9.189,13.406l-0.07,0.095c-2,2.636-2.396,3.032-2.589,3.226c-3.869,3.856-7.457,5.731-10.969,5.731
			c-3.009,0-8.417-1.419-10.845-10.926c-0.852-3.333-0.188-9.422,0.137-11.886l0.041-0.279l7.521-32.767l-58.261-0.009l0.008,12.905
			l-36.428,0.503l36.428,2.922v31.683l-43.5-0.821l43.5,4.925v26.546L74.067-280.742z"/>
	</g>
	<text transform="matrix(1 0 0 1 751.5674 459.5566)" font-family="'Roboto-Light'" font-size="31">Marketplace for Runner and Personal Shopper</text>
	<text transform="matrix(1 0 0 1 959.0508 374.7109)" font-family="'HelveticaLTStd-BlkObl'" font-size="80.1443">Runr</text>
	<g>
		<path fill="#FFFFFF" d="M598.388,232.865v56.701c0,5.799-4.701,10.5-10.5,10.5s-10.5-4.701-10.5-10.5v-56.701h-0.018V126.074
			c0-5.799-4.701-10.5-10.5-10.5s-10.499,4.701-10.499,10.5v133.492c0,0.065,0.009,0.129,0.01,0.193
			c-0.104,5.709-4.756,10.307-10.489,10.307c-5.799,0-10.5-4.701-10.5-10.5v-26.701h-0.089c0.053-0.427,0.089-0.858,0.089-1.299
			V98.074c0-5.799-4.701-10.5-10.5-10.5s-10.5,4.701-10.5,10.5v133.492c0,0.44,0.036,0.872,0.089,1.299h-0.038v74.701
			c0,5.799-4.7,10.5-10.499,10.5c-5.772,0-10.453-4.66-10.495-10.423v-86.569c0-5.799-4.701-10.5-10.5-10.5
			s-10.499,4.701-10.499,10.5v17.879c-0.205,5.618-4.812,10.113-10.479,10.113c-5.799,0-10.5-4.701-10.5-10.5v-5.701V126.074
			c0-5.799-4.701-10.5-10.5-10.5s-10.5,4.701-10.5,10.5v133.492c0,0.34,0.02,0.675,0.051,1.006v29.994c0,5.799-4.7,10.5-10.499,10.5
			c-5.629,0-10.209-4.434-10.474-9.997V188.074c0-5.799-4.7-10.5-10.499-10.5s-10.5,4.701-10.5,10.5v71.879
			c-0.205,5.618-4.813,10.113-10.48,10.113c-5.799,0-10.499-4.701-10.499-10.5v-26.701h-0.001v-63.791c0-5.799-4.7-10.5-10.499-10.5
			s-10.499,4.701-10.499,10.5v133.492c0,0.34,0.02,0.675,0.051,1.006v13.994c0,5.799-4.701,10.5-10.5,10.5s-10.5-4.701-10.5-10.5
			v-57.903c0-0.032,0.005-0.064,0.005-0.097V126.074c0-5.799-4.7-10.5-10.499-10.5s-10.5,4.701-10.5,10.5v133.492
			c0,0.131,0.015,0.258,0.02,0.387v27.613c0,5.799-4.701,10.5-10.5,10.5c-5.799,0-10.5-4.701-10.5-10.5v-54.701h0v-80.791
			c0-5.799-4.701-10.5-10.5-10.5s-10.5,4.701-10.5,10.5v133.492c0,0.34,0.019,0.675,0.051,1.006v46.327
			c0,5.799-4.701,10.5-10.5,10.5s-10.5-4.701-10.5-10.5V232.865h-0.018V126.074c0-5.799-4.701-10.5-10.5-10.5s-10.5,4.701-10.5,10.5
			v133.492c0,0.065,0.009,0.129,0.01,0.193c-0.104,5.709-4.756,10.307-10.49,10.307c-5.799,0-10.5-4.701-10.5-10.5v-26.701h0
			v-46.791c0-5.799-4.701-10.5-10.5-10.5s-10.5,4.701-10.5,10.5v51.498c-0.507,5.326-4.99,9.494-10.449,9.494
			c-5.77,0-10.448-4.654-10.495-10.413v-64.579c0-5.799-4.701-10.5-10.5-10.5s-10.5,4.701-10.5,10.5v97.879
			c-0.205,5.618-4.812,10.113-10.48,10.113c-5.799,0-10.5-4.701-10.5-10.5v-36.701h0v-27.791c0-5.799-4.701-10.5-10.5-10.5
			s-10.5,4.701-10.5,10.5v54.498c-0.507,5.326-4.99,9.494-10.449,9.494c-5.183,0-9.478-3.759-10.334-8.697v-79.295
			c0-5.799-4.701-10.5-10.5-10.5s-10.5,4.701-10.5,10.5v51.791h-0.001v49.701c0,5.799-4.701,10.5-10.5,10.5s-10.5-4.701-10.5-10.5
			v-49.701h-0.001V129.074c0-5.799-4.701-10.5-10.5-10.5s-10.5,4.701-10.5,10.5v103.791h-0.001v1.701c0,5.799-4.701,10.5-10.5,10.5
			s-10.5-4.701-10.5-10.5v-1.701h-18.213v408.041h651.065V232.865H598.388z"/>
		<path fill="#FFFFFF" d="M63.417,152c5.752,0,10.417-4.775,10.417-10.667v-27.999c0-5.892-4.664-10.667-10.417-10.667
			c-5.753,0-10.417,4.775-10.417,10.667v27.999C53,147.225,57.664,152,63.417,152z"/>
		<path fill="#FFFFFF" d="M105.417,183c5.752,0,10.417-4.775,10.417-10.667v-27.999c0-5.892-4.664-10.667-10.417-10.667
			c-5.753,0-10.417,4.775-10.417,10.667v27.999C95,178.225,99.664,183,105.417,183z"/>
		<path fill="#FFFFFF" d="M189.417,155c5.752,0,10.417-4.775,10.417-10.667v-27.999c0-5.892-4.664-10.667-10.417-10.667
			c-5.753,0-10.417,4.775-10.417,10.667v27.999C179,150.225,183.664,155,189.417,155z"/>
		<path fill="#FFFFFF" d="M231.417,98c5.752,0,10.417-4.775,10.417-10.667V59.334c0-5.892-4.664-10.667-10.417-10.667
			c-5.753,0-10.417,4.775-10.417,10.667v27.999C221,93.225,225.664,98,231.417,98z"/>
		<path fill="#FFFFFF" d="M399,150c5.752,0,10.416-4.775,10.416-10.667v-27.999c0-5.892-4.664-10.667-10.416-10.667
			c-5.753,0-10.417,4.775-10.417,10.667v27.999C388.583,145.225,393.247,150,399,150z"/>
		<path fill="#FFFFFF" d="M567,97c5.752,0,10.416-4.775,10.416-10.667V58.334c0-5.892-4.664-10.667-10.416-10.667
			c-5.753,0-10.417,4.775-10.417,10.667v27.999C556.583,92.225,561.247,97,567,97z"/>
		<path fill="#FFFFFF" d="M147.417,132.333c5.752,0,10.417-4.775,10.417-10.667V97v-3.333V69.001
			c0-5.892-4.664-10.667-10.417-10.667c-5.753,0-10.417,4.775-10.417,10.667v24.666V97v24.666
			C137,127.558,141.664,132.333,147.417,132.333z"/>
		<path fill="#FFFFFF" d="M482.417,132.333c5.753,0,10.417-4.775,10.417-10.667V97v-3.333V69.001
			c0-5.892-4.664-10.667-10.417-10.667S472,63.109,472,69.001v24.666V97v24.666C472,127.558,476.664,132.333,482.417,132.333z"/>
	</g>
	<rect x="-54" y="594" fill="#FFFFFF" width="768" height="634"/>
</g>
<g id="Layer_3" display="none">
</g>
</svg>
