<?xml version="1.0" encoding="utf-8"?>
<!-- Generator: Adobe Illustrator 16.0.0, SVG Export Plug-In . SVG Version: 6.00 Build 0)  -->
<!DOCTYPE svg PUBLIC "-//W3C//DTD SVG 1.1//EN" "http://www.w3.org/Graphics/SVG/1.1/DTD/svg11.dtd">
<svg version="1.1" id="Layer_1" xmlns="http://www.w3.org/2000/svg" xmlns:xlink="http://www.w3.org/1999/xlink" x="0px" y="0px"
	 width="320px" height="136.38px" viewBox="0 0 320 136.38" enable-background="new 0 0 320 136.38" xml:space="preserve">
<path fill="#24B370" d="M314.149,101.454l0.019-0.012l-0.276-0.392c-0.085-0.125-0.155-0.256-0.244-0.383
	c-0.089-0.123-0.19-0.233-0.279-0.356l-41.389-58.355c-0.074-0.11-0.155-0.214-0.229-0.324l-0.299-0.42l-0.008,0.006
	c-2.471-3.383-5.953-6.052-10.18-7.507l0.013-0.044l-99.88-29.708c-0.002-0.002-0.004-0.002-0.006-0.004c-0.002,0-0.004,0-0.006,0
	l-0.949-0.284l-0.016,0.049c-0.542-0.133-1.084-0.254-1.626-0.346c-0.039-0.004-0.078-0.008-0.117-0.015
	c-0.625-0.1-1.25-0.178-1.873-0.223c-0.105-0.006-0.211-0.004-0.318-0.01c-0.55-0.03-1.101-0.048-1.65-0.036
	c-0.303,0.004-0.603,0.036-0.906,0.055c-0.344,0.023-0.687,0.036-1.025,0.076c-3.808,0.426-7.521,1.905-10.718,4.432l-0.034-0.038
	L84.297,57.904c-5.617,3.635-10.879,1.355-13.676-0.498l-32.79-29.651l-0.046,0.051c-8.671-7.177-21.527-6.338-29.151,2.091
	c-7.625,8.431-7.17,21.307,0.841,29.215l-0.016,0.017l0.356,0.322c0.111,0.104,0.208,0.219,0.321,0.322
	c0.113,0.102,0.236,0.187,0.352,0.286l52.105,47.122c0.281,0.273,0.572,0.527,0.865,0.782l0.769,0.695l0.022-0.026
	c7.589,5.974,18.468,6.08,26.223-0.106l0.03,0.034l63.917-55.556c0.73-0.547,2.59-1.845,4.722-2.636
	c2.383-0.716,5.412-1.004,9.092-0.246l70.006,20.824c0.867,0.271,3.71,1.381,5.816,4.796l-0.014-0.057l35.626,50.229l0.057-0.041
	c6.905,8.887,19.638,10.857,28.91,4.284C317.903,123.578,320.253,110.913,314.149,101.454z"/>
</svg>
