<?xml version="1.0" encoding="utf-8"?>
<!-- Generator: Adobe Illustrator 16.0.0, SVG Export Plug-In . SVG Version: 6.00 Build 0)  -->
<!DOCTYPE svg PUBLIC "-//W3C//DTD SVG 1.1//EN" "http://www.w3.org/Graphics/SVG/1.1/DTD/svg11.dtd">
<svg version="1.1" id="Layer_1" xmlns="http://www.w3.org/2000/svg" xmlns:xlink="http://www.w3.org/1999/xlink" x="0px" y="0px"
	 width="50px" height="50px" viewBox="0 0 50 50" enable-background="new 0 0 50 50" xml:space="preserve">
<path d="M19,27.001c-0.552,0-1,0.446-1,0.998c0,0.276,0.111,0.526,0.293,0.707l6,6c0.182,0.182,0.432,0.295,0.707,0.295
	s0.525-0.113,0.707-0.295l6-6C31.889,28.525,32,28.275,32,27.999c0-0.552-0.448-0.998-1-0.998c-0.275,0-0.525,0.11-0.707,0.291
	L26,31.585V4V3.999c0-0.552-0.448-1-1-1s-1,0.448-1,1v27.586l-4.293-4.293C19.525,27.111,19.275,27.001,19,27.001 M45,12.999H29
	c-0.552,0-1,0.448-1,1c0,0.553,0.448,1,1,1h16v4H29c-0.552,0-1,0.448-1,1c0,0.553,0.448,1,1,1h12v24H9v-24h12c0.552,0,1-0.447,1-1
	c0-0.552-0.448-1-1-1H5v-4h16c0.552,0,1-0.447,1-1c0-0.552-0.448-1-1-1H5c-1.104,0-2,0.896-2,2v4c0,1.104,0.896,2,2,2h2v24
	c0,1.104,0.896,2.002,2,2.002h32c1.104,0,2-0.898,2-2.002v-24h2c1.104,0,2-0.896,2-2v-4C47,13.896,46.104,12.999,45,12.999"/>
</svg>
