<?xml version="1.0" encoding="utf-8"?>
<!-- Generator: Adobe Illustrator 16.0.0, SVG Export Plug-In . SVG Version: 6.00 Build 0)  -->
<!DOCTYPE svg PUBLIC "-//W3C//DTD SVG 1.1//EN" "http://www.w3.org/Graphics/SVG/1.1/DTD/svg11.dtd">
<svg version="1.1" id="Layer_1" xmlns="http://www.w3.org/2000/svg" xmlns:xlink="http://www.w3.org/1999/xlink" x="0px" y="0px"
	 width="50px" height="50px" viewBox="0 0 50 50" enable-background="new 0 0 50 50" xml:space="preserve">
<path d="M40,36H22c-0.553,0-1,0.448-1,1.001c0,0.552,0.447,1,1,1h18c0.553,0,1-0.448,1-1C41,36.448,40.553,36,40,36 M13,9
	l-1.091,2.909H9l2.363,1.819l-1.09,3.272L13,15l2.727,2.001l-1.09-3.272L17,11.909h-2.909L13,9z M13,21l-1.091,2.909H9l2.363,1.819
	l-1.09,3.272L13,27l2.727,2.001l-1.09-3.272L17,23.909h-2.909L13,21z M14.091,35.909L13,33.001l-1.091,2.908H9l2.363,1.819
	L10.273,41L13,39l2.727,2l-1.09-3.271L17,35.909H14.091z M40,24.001H22c-0.553,0-1,0.446-1,1C21,25.553,21.447,26,22,26h18
	c0.553,0,1-0.447,1-0.999C41,24.447,40.553,24.001,40,24.001 M43,3H7C4.791,3,3,4.791,3,7.001V43c0,2.211,1.791,4,4,4h36
	c2.209,0,4-1.789,4-4V7.001C47,4.791,45.209,3,43,3 M45,43c0,1.105-0.896,2-2,2H7c-1.105,0-2-0.895-2-2V7.001C5,5.896,5.895,5,7,5
	h36c1.104,0,2,0.896,2,2.001V43z M40,12.001H22c-0.553,0-1,0.447-1,0.999c0,0.553,0.447,1,1,1h18c0.553,0,1-0.447,1-1
	C41,12.448,40.553,12.001,40,12.001"/>
</svg>
