<?xml version="1.0" encoding="utf-8"?>
<!-- Generator: Adobe Illustrator 16.0.0, SVG Export Plug-In . SVG Version: 6.00 Build 0)  -->
<!DOCTYPE svg PUBLIC "-//W3C//DTD SVG 1.1//EN" "http://www.w3.org/Graphics/SVG/1.1/DTD/svg11.dtd">
<svg version="1.1" id="Layer_1" xmlns="http://www.w3.org/2000/svg" xmlns:xlink="http://www.w3.org/1999/xlink" x="0px" y="0px"
	 width="50px" height="50px" viewBox="0 0 50 50" enable-background="new 0 0 50 50" xml:space="preserve">
<path d="M25,3C12.849,3,3,12.851,3,25c0,12.15,9.849,22,22,22c12.151,0,22-9.85,22-22C47,12.851,37.15,3,25,3 M25,45
	C13.955,45,5,36.047,5,25C5,13.954,13.955,5,25,5c11.047,0,20,8.954,20,20C45,36.047,36.047,45,25,45 M23.736,34.994h2.809v-3.328
	h-2.809V34.994z M29.463,16.362c-0.537-0.445-1.162-0.789-1.859-1.021c-0.693-0.229-1.449-0.346-2.242-0.346
	c-1.021,0-1.94,0.159-2.739,0.471c-0.802,0.316-1.494,0.763-2.057,1.327c-0.564,0.567-0.998,1.265-1.285,2.071
	c-0.283,0.799-0.428,1.695-0.428,2.665v0.246h2.236l-0.006-0.252c-0.019-0.665,0.063-1.287,0.236-1.847
	c0.174-0.555,0.436-1.043,0.782-1.454c0.341-0.405,0.784-0.729,1.317-0.963c0.535-0.235,1.162-0.354,1.859-0.354
	c0.5,0,0.981,0.084,1.43,0.252c0.447,0.167,0.844,0.398,1.18,0.69c0.332,0.288,0.598,0.644,0.795,1.057
	c0.195,0.413,0.293,0.872,0.293,1.366c0,0.647-0.16,1.244-0.475,1.774c-0.326,0.547-0.742,1.05-1.234,1.492
	c-0.59,0.519-1.098,0.99-1.514,1.402c-0.429,0.425-0.776,0.875-1.035,1.339c-0.26,0.467-0.449,0.994-0.564,1.57
	c-0.113,0.568-0.162,1.279-0.143,2.115l0.007,0.24h2.218l0.006-0.24c0.018-0.813,0.055-1.438,0.109-1.863
	c0.049-0.402,0.152-0.746,0.301-1.021c0.154-0.279,0.393-0.569,0.709-0.86c0.344-0.313,0.799-0.748,1.365-1.298
	c0.711-0.653,1.305-1.345,1.764-2.055c0.477-0.732,0.717-1.632,0.717-2.676c0-0.818-0.156-1.557-0.467-2.194
	C30.434,17.362,30.002,16.813,29.463,16.362"/>
</svg>
