<?xml version="1.0" encoding="utf-8"?>
<!-- Generator: Adobe Illustrator 16.0.0, SVG Export Plug-In . SVG Version: 6.00 Build 0)  -->
<!DOCTYPE svg PUBLIC "-//W3C//DTD SVG 1.1//EN" "http://www.w3.org/Graphics/SVG/1.1/DTD/svg11.dtd">
<svg version="1.1" id="Layer_1" xmlns="http://www.w3.org/2000/svg" xmlns:xlink="http://www.w3.org/1999/xlink" x="0px" y="0px"
	 width="50px" height="50px" viewBox="0 0 50 50" enable-background="new 0 0 50 50" xml:space="preserve">
<path d="M25,13c-6.627,0-12,5.373-12,12c0,6.628,5.373,12,12,12s12-5.372,12-12C37,18.373,31.627,13,25,13 M25,15
	c3.401,0,6.401,1.702,8.208,4.296l-5.315,2.954C27.164,21.484,26.141,21,25,21s-2.164,0.484-2.893,1.25l-5.315-2.954
	C18.599,16.702,21.599,15,25,15 M24,34.95c-5.053-0.501-9-4.765-9-9.95c0-1.406,0.293-2.743,0.817-3.957l5.324,2.958
	C21.059,24.322,21,24.654,21,25c0,1.863,1.277,3.413,3,3.859V34.95z M23,25c0-1.104,0.896-2,2-2s2,0.896,2,2c0,1.105-0.896,2-2,2
	S23,26.105,23,25 M35,25c0,5.186-3.947,9.449-9,9.95v-6.091c1.723-0.446,3-1.996,3-3.859c0-0.346-0.059-0.678-0.142-0.999
	l5.324-2.958C34.707,22.257,35,23.594,35,25 M45.533,20.601l-2.117-0.53c-0.438-1.63-1.084-3.174-1.912-4.601l1.127-1.877
	c0.346-0.671,0.572-1.502,0-2.074L38.482,7.37c-0.258-0.258-0.575-0.36-0.904-0.36c-0.401,0-0.82,0.152-1.17,0.36l-1.89,1.133
	c-1.422-0.822-2.96-1.466-4.585-1.901L29.4,4.467C29.171,3.748,28.743,3,27.934,3h-5.867c-0.81,0-1.283,0.748-1.467,1.467
	l-0.533,2.135c-1.625,0.435-3.163,1.079-4.586,1.901L13.592,7.37c-0.35-0.208-0.769-0.36-1.17-0.36c-0.329,0-0.646,0.102-0.904,0.36
	l-4.148,4.149c-0.572,0.572-0.346,1.403,0,2.074l1.127,1.877c-0.828,1.427-1.477,2.971-1.912,4.601l-2.117,0.53
	C3.748,20.783,3,21.257,3,22.068v5.866c0,0.811,0.748,1.237,1.467,1.467l2.117,0.529c0.436,1.631,1.084,3.174,1.912,4.602
	l-1.127,1.877c-0.378,0.638-0.572,1.501,0,2.074l4.148,4.148c0.252,0.252,0.556,0.35,0.873,0.35c0.402,0,0.826-0.156,1.201-0.35
	l1.889-1.133c1.423,0.822,2.961,1.466,4.586,1.9l0.533,2.135C20.783,46.252,21.257,47,22.066,47h5.867
	c0.81,0,1.237-0.748,1.467-1.467l0.533-2.135c1.625-0.435,3.163-1.078,4.585-1.9l1.89,1.133c0.375,0.193,0.8,0.35,1.201,0.35
	c0.317,0,0.619-0.098,0.873-0.35l4.148-4.148c0.572-0.573,0.378-1.437,0-2.074l-1.127-1.877c0.828-1.428,1.475-2.971,1.912-4.602
	l2.117-0.529C46.252,29.171,47,28.744,47,27.934v-5.866C47,21.257,46.252,20.783,45.533,20.601 M45,27.47
	c-0.008,0.003-0.015,0.007-0.022,0.009l-2.047,0.513c-0.705,0.175-1.259,0.72-1.446,1.421c-0.386,1.439-0.961,2.822-1.71,4.115
	c-0.366,0.629-0.36,1.408,0.015,2.033l1.102,1.834l-3.494,3.494c-0.008-0.003-0.015-0.007-0.021-0.011l-1.827-1.095
	c-0.317-0.19-0.672-0.285-1.029-0.285c-0.344,0-0.689,0.089-1,0.268c-1.292,0.746-2.671,1.318-4.102,1.701
	c-0.702,0.188-1.248,0.741-1.424,1.447l-0.517,2.064c-0.002,0.008-0.004,0.014-0.007,0.022h-4.941l-0.521-2.088
	c-0.177-0.705-0.722-1.259-1.424-1.446c-1.431-0.383-2.81-0.955-4.104-1.701c-0.309-0.179-0.653-0.268-0.998-0.268
	c-0.357,0-0.713,0.095-1.029,0.285l-1.826,1.095c-0.007,0.004-0.014,0.008-0.022,0.011L9.11,37.395l1.101-1.836
	c0.375-0.623,0.381-1.402,0.016-2.031c-0.75-1.293-1.326-2.678-1.711-4.115c-0.188-0.701-0.742-1.246-1.446-1.421l-2.046-0.513
	C5.016,27.477,5.008,27.473,5,27.47v-4.941l2.069-0.517c0.704-0.177,1.259-0.721,1.446-1.424c0.385-1.437,0.961-2.821,1.711-4.114
	c0.365-0.63,0.359-1.408-0.016-2.032l-1.089-1.817c-0.003-0.007-0.007-0.013-0.011-0.02l3.494-3.494l1.846,1.107
	c0.316,0.19,0.672,0.284,1.029,0.284c0.345,0,0.689-0.089,1-0.267c1.291-0.746,2.672-1.319,4.103-1.701
	c0.702-0.188,1.247-0.742,1.424-1.447L22.528,5h4.941c0.003,0.008,0.005,0.015,0.007,0.023l0.517,2.064
	c0.176,0.705,0.722,1.259,1.424,1.447c1.431,0.382,2.81,0.955,4.102,1.701c0.311,0.178,0.655,0.267,1,0.267
	c0.357,0,0.712-0.094,1.029-0.284l1.846-1.107l3.495,3.494c-0.004,0.007-0.007,0.013-0.011,0.021l-1.089,1.815
	c-0.375,0.625-0.381,1.403-0.015,2.033c0.749,1.292,1.324,2.676,1.71,4.114c0.188,0.703,0.741,1.247,1.446,1.424L45,22.529V27.47z"
	/>
</svg>
