<?xml version="1.0" encoding="utf-8"?>
<!-- Generator: Adobe Illustrator 16.0.0, SVG Export Plug-In . SVG Version: 6.00 Build 0)  -->
<!DOCTYPE svg PUBLIC "-//W3C//DTD SVG 1.1//EN" "http://www.w3.org/Graphics/SVG/1.1/DTD/svg11.dtd">
<svg version="1.1" id="Layer_1" xmlns="http://www.w3.org/2000/svg" xmlns:xlink="http://www.w3.org/1999/xlink" x="0px" y="0px"
	 width="50px" height="50px" viewBox="0 0 50 50" enable-background="new 0 0 50 50" xml:space="preserve">
<path d="M25,3C12.85,3,3,12.849,3,25c0,12.15,9.85,22,22,22s22-9.85,22-22C47,12.849,37.15,3,25,3 M25,45
	c-4.979,0-9.522-1.83-13.023-4.84c2.695-2.357,3.983-3.004,6.959-4.318c3.447-1.523,4.62-4.219,3.219-7.402
	c-0.252-0.57-0.545-1.1-0.854-1.66c-1.063-1.917-2.3-4.091-2.3-9.061c0-5.876,2.79-5.922,5.006-5.959
	c1.572-0.027,2.34-0.298,2.955-0.516c0.411-0.147,0.659-0.233,1.112-0.233c1.853,0,3.896,1.828,3.896,6.958
	c0,5.174-0.775,6.447-1.956,8.555c-0.311,0.555-0.647,1.156-1.003,1.877c-0.688,1.398-0.828,2.707-0.415,3.893
	c0.53,1.52,1.91,2.764,4.342,3.914c1.993,0.941,4.083,2.781,5.205,3.846C34.625,43.125,30.036,45,25,45 M39.582,38.658
	c-1.195-1.143-3.497-3.178-5.789-4.262c-1.89-0.891-2.973-1.797-3.311-2.762c-0.232-0.67-0.129-1.439,0.32-2.348
	c0.339-0.688,0.659-1.26,0.955-1.785c1.247-2.228,2.211-3.836,2.211-9.533c0-8.527-4.922-8.958-5.896-8.958
	c-0.798,0-1.297,0.176-1.78,0.347c-0.528,0.188-1.075,0.382-2.32,0.403C21.72,9.798,17,9.876,17,17.719
	c0,5.487,1.428,8.006,2.551,10.031c0.287,0.518,0.559,1.01,0.773,1.498c0.955,2.166,0.258,3.682-2.196,4.764
	c-3.1,1.371-4.56,2.084-7.604,4.762C7.109,35.186,5,30.344,5,25C5,13.954,13.954,5,25,5s20,8.954,20,20
	C45,30.287,42.933,35.082,39.582,38.658"/>
</svg>
